<svg xmlns="http://www.w3.org/2000/svg" version="1.1" xmlns:xlink="http://www.w3.org/1999/xlink" xmlns:svgjs="http://svgjs.dev/svgjs" width="1500" height="1500" viewBox="0 0 1500 1500"><rect width="1500" height="1500" fill="#ffffff"></rect><g transform="matrix(0.6666666666666666,0,0,0.6666666666666666,249.39393939393938,692.2188850154782)"><svg viewBox="0 0 396 46" data-background-color="#ffffff" preserveAspectRatio="xMidYMid meet" height="174" width="1500" xmlns="http://www.w3.org/2000/svg" xmlns:xlink="http://www.w3.org/1999/xlink"><g id="tight-bounds" transform="matrix(1,0,0,1,0.2400000000000091,-0.08679923027582959)"><svg viewBox="0 0 395.52 46.17359846055164" height="46.17359846055164" width="395.52"><g><svg viewBox="0 0 395.52 46.17359846055164" height="46.17359846055164" width="395.52"><g><svg viewBox="0 0 395.52 46.17359846055164" height="46.17359846055164" width="395.52"><g id="textblocktransform"><svg viewBox="0 0 395.52 46.17359846055164" height="46.17359846055164" width="395.52" id="textblock"><g><svg viewBox="0 0 395.52 46.17359846055164" height="46.17359846055164" width="395.52"><g transform="matrix(1,0,0,1,0,0)"><svg width="395.52" viewBox="3 -35.7 311.78 36.400000000000006" height="46.17359846055164" data-palette-color="#096a2e"><path d="M35.1-14.6L35.5-14.6 34.9-6.75Q33.6-4.6 31.63-2.93 29.65-1.25 26.98-0.28 24.3 0.7 20.85 0.7L20.85 0.7Q15.65 0.65 11.6-1.6 7.55-3.85 5.28-7.93 3-12 3-17.55L3-17.55Q3-23 5.25-27.08 7.5-31.15 11.58-33.43 15.65-35.7 21.15-35.7L21.15-35.7Q24.85-35.7 27.83-34.73 30.8-33.75 33-32.3L33-32.3 34-25.25 33.55-25.25Q32.45-29.65 29.05-31.93 25.65-34.2 21.15-34.2L21.15-34.2Q16.75-34.2 13.53-32.13 10.3-30.05 8.53-26.33 6.75-22.6 6.75-17.6L6.75-17.6Q6.75-12.6 8.53-8.85 10.3-5.1 13.48-3 16.65-0.9 20.85-0.8L20.85-0.8Q24.4-0.8 27.43-2.13 30.45-3.45 32.5-6.48 34.55-9.5 35.1-14.6L35.1-14.6ZM46.85-30L46.85-30 53.3-30Q55.65-30 57.52-29.45 59.4-28.9 60.72-27.85 62.05-26.8 62.75-25.3 63.45-23.8 63.45-21.9L63.45-21.9Q63.45-19.8 62.45-18 61.45-16.2 59.67-15.05 57.9-13.9 55.65-13.65L55.65-13.65Q56.5-13.3 57.62-12.1 58.75-10.9 59.55-9.75L59.55-9.75Q59.55-9.75 60.2-8.88 60.85-8 61.87-6.73 62.9-5.45 63.9-4.3L63.9-4.3Q64.95-3.15 65.82-2.3 66.7-1.45 67.72-0.98 68.75-0.5 70.1-0.5L70.1-0.5 70.1 0 68.55 0Q65.8 0 64.02-0.7 62.25-1.4 61.15-2.43 60.05-3.45 59.25-4.4L59.25-4.4Q59.05-4.65 58.32-5.68 57.6-6.7 56.75-7.9 55.9-9.1 55.2-10.08 54.5-11.05 54.35-11.25L54.35-11.25Q53.35-12.55 52.05-13.58 50.75-14.6 49.3-14.6L49.3-14.6 49.3-15.1Q49.3-15.1 50.1-15.08 50.9-15.05 52.15-15.1L52.15-15.1Q53.55-15.15 54.95-15.33 56.35-15.5 57.57-16.4 58.8-17.3 59.5-19.4L59.5-19.4Q59.7-19.95 59.8-20.7 59.9-21.45 59.85-22.25L59.85-22.25Q59.8-23.65 59.32-24.75 58.85-25.85 57.97-26.65 57.1-27.45 55.9-27.9 54.7-28.35 53.2-28.4L53.2-28.4Q50.85-28.5 49.1-28.45 47.35-28.4 47.35-28.45L47.35-28.45Q47.35-28.5 47.22-28.88 47.1-29.25 46.97-29.63 46.85-30 46.85-30ZM44.25-30L47.45-30 47.45 0 44.25 0 44.25-30ZM44.3-3.2L44.4-3.2 45 0 40.75 0 40.75-0.5Q40.75-0.5 41.1-0.5 41.45-0.5 41.45-0.5L41.45-0.5Q42.65-0.5 43.45-1.3 44.25-2.1 44.3-3.2L44.3-3.2ZM45-30L44.4-26.85 44.3-26.85Q44.25-28 43.45-28.75 42.65-29.5 41.45-29.5L41.45-29.5Q41.45-29.5 41.1-29.5 40.75-29.5 40.75-29.5L40.75-29.5 40.75-30 45-30ZM46.7 0L47.3-3.2 47.45-3.2Q47.5-2.1 48.3-1.3 49.1-0.5 50.3-0.5L50.3-0.5Q50.3-0.5 50.62-0.5 50.95-0.5 50.95-0.5L50.95-0.5 51 0 46.7 0ZM75.69-30L78.89-30 78.89 0 75.69 0 75.69-30ZM78.8-1.55L92.34-1.55 92.25 0 78.8 0 78.8-1.55ZM78.8-15.75L90-15.75 90-14.25 78.8-14.25 78.8-15.75ZM78.8-30L92.3-30 92.3-28.45 78.8-28.45 78.8-30ZM94.64-7.15L95.14-7.15 92.39 0 84.8 0 86.5-1.55Q89-1.55 90.52-2.27 92.05-3 93-4.28 93.94-5.55 94.64-7.15L94.64-7.15ZM87.39-14.35L90-14.35 90-11.5 89.44-11.5 89.44-12.15Q89.44-13 88.94-13.63 88.44-14.25 87.39-14.25L87.39-14.25 87.39-14.35ZM89.44-18.5L90-18.5 90-15.65 87.39-15.65 87.39-15.75Q88.44-15.75 88.94-16.38 89.44-17 89.44-17.85L89.44-17.85 89.44-18.5ZM89.25-28.6L92.3-28.6 92.3-25.15 91.75-25.15 91.75-25.9Q91.75-26.95 91.07-27.7 90.39-28.45 89.25-28.45L89.25-28.45 89.25-28.6ZM92.3-30.8L92.3-30.8 92.3-29.5 86.59-30Q88.14-30 89.89-30.28 91.64-30.55 92.3-30.8ZM75.69-3.2L75.8-3.2 76.44 0 72.09 0 72.09-0.5Q72.09-0.5 72.44-0.5 72.8-0.5 72.8-0.5L72.8-0.5Q74.05-0.5 74.84-1.3 75.64-2.1 75.69-3.2L75.69-3.2ZM76.44-30L75.8-26.85 75.69-26.85Q75.64-28 74.84-28.75 74.05-29.5 72.8-29.5L72.8-29.5Q72.8-29.5 72.44-29.5 72.09-29.5 72.09-29.5L72.09-29.5 72.09-30 76.44-30ZM104.34-30L115.59-30Q120.54-30 124.14-28.2 127.74-26.4 129.69-23.03 131.64-19.65 131.64-15L131.64-15Q131.64-10.35 129.69-7 127.74-3.65 124.14-1.83 120.54 0 115.59 0L115.59 0 104.94 0 104.84-1.5Q108.34-1.5 110.72-1.5 113.09-1.5 114.34-1.5 115.59-1.5 115.59-1.5L115.59-1.5Q121.39-1.5 124.72-5.13 128.04-8.75 128.04-15L128.04-15Q128.04-21.25 124.72-24.88 121.39-28.5 115.59-28.5L115.59-28.5Q115.59-28.5 114.29-28.5 112.99-28.5 110.49-28.5 107.99-28.5 104.34-28.5L104.34-28.5 104.34-30ZM102.39-30L105.64-30 105.64 0 102.39 0 102.39-30ZM102.39-3.25L102.49-3.25 102.49 0 98.89 0 98.89-0.5Q98.89-0.5 99.22-0.5 99.54-0.5 99.54-0.5L99.54-0.5Q100.74-0.5 101.54-1.33 102.34-2.15 102.39-3.25L102.39-3.25ZM102.49-30L102.49-26.75 102.39-26.75Q102.34-27.95 101.52-28.73 100.69-29.5 99.49-29.5L99.49-29.5Q99.49-29.5 99.19-29.5 98.89-29.5 98.89-29.5L98.89-29.5 98.89-30 102.49-30ZM140.24-30L143.39-30 143.39 0 140.24 0 140.24-30ZM140.24-3.2L140.39-3.2 140.39 0 136.14 0 136.14-0.5Q136.14-0.5 136.49-0.5 136.84-0.5 136.84-0.5L136.84-0.5Q138.24-0.5 139.21-1.3 140.19-2.1 140.24-3.2L140.24-3.2ZM143.24 0L143.24-3.2 143.39-3.2Q143.44-2.1 144.41-1.3 145.39-0.5 146.79-0.5L146.79-0.5Q146.79-0.5 147.11-0.5 147.44-0.5 147.44-0.5L147.44-0.5 147.49 0 143.24 0ZM143.39-26.8L143.24-26.8 143.24-30 147.49-30 147.44-29.5Q147.44-29.5 147.11-29.5 146.79-29.5 146.79-29.5L146.79-29.5Q145.39-29.5 144.41-28.73 143.44-27.95 143.39-26.8L143.39-26.8ZM140.39-30L140.39-26.8 140.24-26.8Q140.19-27.95 139.21-28.73 138.24-29.5 136.84-29.5L136.84-29.5Q136.79-29.5 136.46-29.5 136.14-29.5 136.14-29.5L136.14-29.5 136.14-30 140.39-30ZM163.04-29.85L166.29-29.85 166.29 0 163.04 0 163.04-29.85ZM150.94-30.05L178.39-30.05 178.39-28.55 150.94-28.55 150.94-30.05ZM175.34-28.65L178.39-28.65 178.39-25.2 177.84-25.2 177.84-26Q177.84-27.05 177.16-27.78 176.49-28.5 175.34-28.55L175.34-28.55 175.34-28.65ZM178.39-30.85L178.39-30.85 178.39-29.55 172.79-30.05Q173.79-30.05 174.91-30.18 176.04-30.3 176.99-30.5 177.94-30.7 178.39-30.85ZM163.04-3.2L163.14-3.2 163.14 0 159.49 0 159.49-0.5Q159.54-0.5 159.81-0.5 160.09-0.5 160.09-0.5L160.09-0.5Q161.29-0.5 162.14-1.3 162.99-2.1 163.04-3.2L163.04-3.2ZM166.14 0L166.14-3.2 166.29-3.2Q166.34-2.1 167.19-1.3 168.04-0.5 169.24-0.5L169.24-0.5Q169.24-0.5 169.51-0.5 169.79-0.5 169.79-0.5L169.79-0.5 169.79 0 166.14 0ZM150.94-28.65L153.99-28.65 153.99-28.55Q152.84-28.5 152.16-27.78 151.49-27.05 151.49-26L151.49-26 151.49-25.2 150.94-25.2 150.94-28.65ZM150.94-29.55L150.94-30.85Q151.39-30.7 152.31-30.5 153.24-30.3 154.39-30.18 155.54-30.05 156.54-30.05L156.54-30.05 150.94-29.55ZM185.94-35L189.19-35 189.19 0 185.94 0 185.94-35ZM189.03-1.55L202.69-1.55 202.69 0 189.03 0 189.03-1.55ZM205.24-8.1L205.74-8.1 202.84 0 194.53 0 196.34-1.55Q198.99-1.55 200.66-2.38 202.34-3.2 203.39-4.7 204.44-6.2 205.24-8.1L205.24-8.1ZM185.94-3.65L186.09-3.65 186.09 0 182.09 0 182.09-0.5Q182.09-0.5 182.41-0.5 182.74-0.5 182.74-0.5L182.74-0.5Q184.03-0.5 184.96-1.43 185.89-2.35 185.94-3.65L185.94-3.65ZM186.09-35L186.09-31.35 185.94-31.35Q185.89-32.65 184.96-33.58 184.03-34.5 182.74-34.5L182.74-34.5Q182.74-34.5 182.41-34.5 182.09-34.5 182.09-34.5L182.09-34.5 182.09-35 186.09-35ZM189.19-31.35L189.03-31.35 189.03-35 193.03-35 193.03-34.5Q192.99-34.5 192.69-34.5 192.39-34.5 192.39-34.5L192.39-34.5Q191.09-34.5 190.16-33.58 189.24-32.65 189.19-31.35L189.19-31.35ZM223.13-26.25L223.98-30.7 237.73-0.3 233.78-0.3 223.13-26.25ZM211.38-3.65L214.33-3.65Q213.78-2.15 214.48-1.33 215.18-0.5 216.08-0.5L216.08-0.5 216.48-0.5 216.48 0 206.93 0 206.93-0.5Q206.93-0.5 207.13-0.5 207.33-0.5 207.33-0.5L207.33-0.5Q208.38-0.5 209.48-1.23 210.58-1.95 211.38-3.65L211.38-3.65ZM223.53-30.7L223.98-30.7 224.33-27.25 212.88-0.15 209.73-0.15 221.58-25.55Q221.58-25.55 221.86-26.15 222.13-26.75 222.51-27.63 222.88-28.5 223.18-29.35 223.48-30.2 223.53-30.7L223.53-30.7ZM216.63-11.65L229.88-11.65 229.88-10.15 216.63-10.15 216.63-11.65ZM232.43-3.65L232.43-3.65 236.23-3.65Q236.98-1.95 238.08-1.23 239.18-0.5 240.18-0.5L240.18-0.5Q240.18-0.5 240.38-0.5 240.58-0.5 240.58-0.5L240.58-0.5 240.58 0 230.33 0 230.33-0.5 230.73-0.5Q231.58-0.5 232.28-1.33 232.98-2.15 232.43-3.65ZM246.23-25.55L245.73-30.75 273.43-4.65 273.93 0.7 246.23-25.55ZM245.68-3.1L245.83-3.1 245.83 0 242.08 0 242.08-0.5Q242.08-0.5 242.51-0.5 242.93-0.5 242.93-0.5L242.93-0.5Q244.08-0.5 244.88-1.25 245.68-2 245.68-3.1L245.68-3.1ZM247.78-3.1L247.93-3.1Q247.93-2 248.76-1.25 249.58-0.5 250.68-0.5L250.68-0.5Q250.68-0.5 251.11-0.5 251.53-0.5 251.53-0.5L251.53-0.5 251.53 0 247.78 0 247.78-3.1ZM245.23-30.75L245.73-30.75 247.88-27.95 247.93 0 245.68 0 245.68-24.5Q245.68-27.05 245.46-28.9 245.23-30.75 245.23-30.75L245.23-30.75ZM271.73-30L273.93-30 273.93-5.7Q273.93-4.1 274.03-2.63 274.13-1.15 274.25-0.23 274.38 0.7 274.38 0.7L274.38 0.7 273.93 0.7 271.73-1.95 271.73-30ZM273.93-26.9L273.78-26.9 273.78-30 277.53-30 277.53-29.5Q277.53-29.5 277.11-29.5 276.68-29.5 276.68-29.5L276.68-29.5Q275.58-29.5 274.75-28.75 273.93-28 273.93-26.9L273.93-26.9ZM271.83-26.9L271.73-26.9Q271.68-28 270.88-28.75 270.08-29.5 268.93-29.5L268.93-29.5Q268.93-29.5 268.5-29.5 268.08-29.5 268.08-29.5L268.08-29.5 268.08-30 271.83-30 271.83-26.9ZM287.48-30L298.73-30Q303.68-30 307.28-28.2 310.88-26.4 312.83-23.03 314.78-19.65 314.78-15L314.78-15Q314.78-10.35 312.83-7 310.88-3.65 307.28-1.83 303.68 0 298.73 0L298.73 0 288.08 0 287.98-1.5Q291.48-1.5 293.85-1.5 296.23-1.5 297.48-1.5 298.73-1.5 298.73-1.5L298.73-1.5Q304.53-1.5 307.85-5.13 311.18-8.75 311.18-15L311.18-15Q311.18-21.25 307.85-24.88 304.53-28.5 298.73-28.5L298.73-28.5Q298.73-28.5 297.43-28.5 296.13-28.5 293.63-28.5 291.13-28.5 287.48-28.5L287.48-28.5 287.48-30ZM285.53-30L288.78-30 288.78 0 285.53 0 285.53-30ZM285.53-3.25L285.63-3.25 285.63 0 282.03 0 282.03-0.5Q282.03-0.5 282.35-0.5 282.68-0.5 282.68-0.5L282.68-0.5Q283.88-0.5 284.68-1.33 285.48-2.15 285.53-3.25L285.53-3.25ZM285.63-30L285.63-26.75 285.53-26.75Q285.48-27.95 284.65-28.73 283.83-29.5 282.63-29.5L282.63-29.5Q282.63-29.5 282.33-29.5 282.03-29.5 282.03-29.5L282.03-29.5 282.03-30 285.63-30Z" opacity="1" transform="matrix(1,0,0,1,0,0)" fill="#000000" class="wordmark-text-0" data-fill-palette-color="primary" id="text-0"></path></svg></g></svg></g></svg></g></svg></g><g></g></svg></g><defs></defs></svg><rect width="395.52" height="46.17359846055164" fill="none" stroke="none" visibility="hidden"></rect></g></svg></g></svg>