<svg xmlns="http://www.w3.org/2000/svg" version="1.1" xmlns:xlink="http://www.w3.org/1999/xlink" xmlns:svgjs="http://svgjs.dev/svgjs" width="1500" height="1500" viewBox="0 0 1500 1500"><rect width="1500" height="1500" fill="#ffffff"></rect><g transform="matrix(0.6666666666666666,0,0,0.6666666666666666,249.39393939393938,648.5008529073776)"><svg viewBox="0 0 396 80" data-background-color="#ffffff" preserveAspectRatio="xMidYMid meet" height="303" width="1500" xmlns="http://www.w3.org/2000/svg" xmlns:xlink="http://www.w3.org/1999/xlink"><g id="tight-bounds" transform="matrix(1,0,0,1,0.2400000000000091,0.19768201688015097)"><svg viewBox="0 0 395.52 79.60463596623968" height="79.60463596623968" width="395.52"><g><svg viewBox="0 0 397.4975999999999 80.00265914607087" height="79.60463596623968" width="395.52"><g><svg viewBox="0 0 397.4975999999999 80.00265914607087" height="80.00265914607087" width="397.4975999999999"><g id="textblocktransform"><svg viewBox="0 0 397.4975999999999 80.00265914607087" height="80.00265914607087" width="397.4975999999999" id="textblock"><g><rect width="397.4975999999999" height="4.163982760326158" x="0" y="51.07881375412957" fill="#096a2e" opacity="1" stroke-width="0" stroke="transparent" fill-opacity="1" class="rect-qz-0" data-fill-palette-color="primary" rx="1%" id="qz-0" data-palette-color="#096a2e"></rect></g><g transform="matrix(1,0,0,1,0.9887999999999693,0)"><svg viewBox="0 0 395.52 46.17359846055164" height="46.17359846055164" width="395.52"><g transform="matrix(1,0,0,1,0,0)"><svg width="395.52" viewBox="3 -35.7 311.78 36.400000000000006" height="46.17359846055164" data-palette-color="#096a2e"><path d="M35.1-14.6L35.5-14.6 34.9-6.75Q33.6-4.6 31.63-2.93 29.65-1.25 26.98-0.28 24.3 0.7 20.85 0.7L20.85 0.7Q15.65 0.65 11.6-1.6 7.55-3.85 5.28-7.93 3-12 3-17.55L3-17.55Q3-23 5.25-27.08 7.5-31.15 11.58-33.43 15.65-35.7 21.15-35.7L21.15-35.7Q24.85-35.7 27.83-34.73 30.8-33.75 33-32.3L33-32.3 34-25.25 33.55-25.25Q32.45-29.65 29.05-31.93 25.65-34.2 21.15-34.2L21.15-34.2Q16.75-34.2 13.53-32.13 10.3-30.05 8.53-26.33 6.75-22.6 6.75-17.6L6.75-17.6Q6.75-12.6 8.53-8.85 10.3-5.1 13.48-3 16.65-0.9 20.85-0.8L20.85-0.8Q24.4-0.8 27.43-2.13 30.45-3.45 32.5-6.48 34.55-9.5 35.1-14.6L35.1-14.6ZM46.85-30L46.85-30 53.3-30Q55.65-30 57.52-29.45 59.4-28.9 60.72-27.85 62.05-26.8 62.75-25.3 63.45-23.8 63.45-21.9L63.45-21.9Q63.45-19.8 62.45-18 61.45-16.2 59.67-15.05 57.9-13.9 55.65-13.65L55.65-13.65Q56.5-13.3 57.62-12.1 58.75-10.9 59.55-9.75L59.55-9.75Q59.55-9.75 60.2-8.88 60.85-8 61.87-6.73 62.9-5.45 63.9-4.3L63.9-4.3Q64.95-3.15 65.82-2.3 66.7-1.45 67.72-0.98 68.75-0.5 70.1-0.5L70.1-0.5 70.1 0 68.55 0Q65.8 0 64.02-0.7 62.25-1.4 61.15-2.43 60.05-3.45 59.25-4.4L59.25-4.4Q59.05-4.65 58.32-5.68 57.6-6.7 56.75-7.9 55.9-9.1 55.2-10.08 54.5-11.05 54.35-11.25L54.35-11.25Q53.35-12.55 52.05-13.58 50.75-14.6 49.3-14.6L49.3-14.6 49.3-15.1Q49.3-15.1 50.1-15.08 50.9-15.05 52.15-15.1L52.15-15.1Q53.55-15.15 54.95-15.33 56.35-15.5 57.57-16.4 58.8-17.3 59.5-19.4L59.5-19.4Q59.7-19.95 59.8-20.7 59.9-21.45 59.85-22.25L59.85-22.25Q59.8-23.65 59.32-24.75 58.85-25.85 57.97-26.65 57.1-27.45 55.9-27.9 54.7-28.35 53.2-28.4L53.2-28.4Q50.85-28.5 49.1-28.45 47.35-28.4 47.35-28.45L47.35-28.45Q47.35-28.5 47.22-28.88 47.1-29.25 46.97-29.63 46.85-30 46.85-30ZM44.25-30L47.45-30 47.45 0 44.25 0 44.25-30ZM44.3-3.2L44.4-3.2 45 0 40.75 0 40.75-0.5Q40.75-0.5 41.1-0.5 41.45-0.5 41.45-0.5L41.45-0.5Q42.65-0.5 43.45-1.3 44.25-2.1 44.3-3.2L44.3-3.2ZM45-30L44.4-26.85 44.3-26.85Q44.25-28 43.45-28.75 42.65-29.5 41.45-29.5L41.45-29.5Q41.45-29.5 41.1-29.5 40.75-29.5 40.75-29.5L40.75-29.5 40.75-30 45-30ZM46.7 0L47.3-3.2 47.45-3.2Q47.5-2.1 48.3-1.3 49.1-0.5 50.3-0.5L50.3-0.5Q50.3-0.5 50.62-0.5 50.95-0.5 50.95-0.5L50.95-0.5 51 0 46.7 0ZM75.69-30L78.89-30 78.89 0 75.69 0 75.69-30ZM78.8-1.55L92.34-1.55 92.25 0 78.8 0 78.8-1.55ZM78.8-15.75L90-15.75 90-14.25 78.8-14.25 78.8-15.75ZM78.8-30L92.3-30 92.3-28.45 78.8-28.45 78.8-30ZM94.64-7.15L95.14-7.15 92.39 0 84.8 0 86.5-1.55Q89-1.55 90.52-2.27 92.05-3 93-4.28 93.94-5.55 94.64-7.15L94.64-7.15ZM87.39-14.35L90-14.35 90-11.5 89.44-11.5 89.44-12.15Q89.44-13 88.94-13.63 88.44-14.25 87.39-14.25L87.39-14.25 87.39-14.35ZM89.44-18.5L90-18.5 90-15.65 87.39-15.65 87.39-15.75Q88.44-15.75 88.94-16.38 89.44-17 89.44-17.85L89.44-17.85 89.44-18.5ZM89.25-28.6L92.3-28.6 92.3-25.15 91.75-25.15 91.75-25.9Q91.75-26.95 91.07-27.7 90.39-28.45 89.25-28.45L89.25-28.45 89.25-28.6ZM92.3-30.8L92.3-30.8 92.3-29.5 86.59-30Q88.14-30 89.89-30.28 91.64-30.55 92.3-30.8ZM75.69-3.2L75.8-3.2 76.44 0 72.09 0 72.09-0.5Q72.09-0.5 72.44-0.5 72.8-0.5 72.8-0.5L72.8-0.5Q74.05-0.5 74.84-1.3 75.64-2.1 75.69-3.2L75.69-3.2ZM76.44-30L75.8-26.85 75.69-26.85Q75.64-28 74.84-28.75 74.05-29.5 72.8-29.5L72.8-29.5Q72.8-29.5 72.44-29.5 72.09-29.5 72.09-29.5L72.09-29.5 72.09-30 76.44-30ZM104.34-30L115.59-30Q120.54-30 124.14-28.2 127.74-26.4 129.69-23.03 131.64-19.65 131.64-15L131.64-15Q131.64-10.35 129.69-7 127.74-3.65 124.14-1.83 120.54 0 115.59 0L115.59 0 104.94 0 104.84-1.5Q108.34-1.5 110.72-1.5 113.09-1.5 114.34-1.5 115.59-1.5 115.59-1.5L115.59-1.5Q121.39-1.5 124.72-5.13 128.04-8.75 128.04-15L128.04-15Q128.04-21.25 124.72-24.88 121.39-28.5 115.59-28.5L115.59-28.5Q115.59-28.5 114.29-28.5 112.99-28.5 110.49-28.5 107.99-28.5 104.34-28.5L104.34-28.5 104.34-30ZM102.39-30L105.64-30 105.64 0 102.39 0 102.39-30ZM102.39-3.25L102.49-3.25 102.49 0 98.89 0 98.89-0.5Q98.89-0.5 99.22-0.5 99.54-0.5 99.54-0.5L99.54-0.5Q100.74-0.5 101.54-1.33 102.34-2.15 102.39-3.25L102.39-3.25ZM102.49-30L102.49-26.75 102.39-26.75Q102.34-27.95 101.52-28.73 100.69-29.5 99.49-29.5L99.49-29.5Q99.49-29.5 99.19-29.5 98.89-29.5 98.89-29.5L98.89-29.5 98.89-30 102.49-30ZM140.24-30L143.39-30 143.39 0 140.24 0 140.24-30ZM140.24-3.2L140.39-3.2 140.39 0 136.14 0 136.14-0.5Q136.14-0.5 136.49-0.5 136.84-0.5 136.84-0.5L136.84-0.5Q138.24-0.5 139.21-1.3 140.19-2.1 140.24-3.2L140.24-3.2ZM143.24 0L143.24-3.2 143.39-3.2Q143.44-2.1 144.41-1.3 145.39-0.5 146.79-0.5L146.79-0.5Q146.79-0.5 147.11-0.5 147.44-0.5 147.44-0.5L147.44-0.5 147.49 0 143.24 0ZM143.39-26.8L143.24-26.8 143.24-30 147.49-30 147.44-29.5Q147.44-29.5 147.11-29.5 146.79-29.5 146.79-29.5L146.79-29.5Q145.39-29.5 144.41-28.73 143.44-27.95 143.39-26.8L143.39-26.8ZM140.39-30L140.39-26.8 140.24-26.8Q140.19-27.95 139.21-28.73 138.24-29.5 136.84-29.5L136.84-29.5Q136.79-29.5 136.46-29.5 136.14-29.5 136.14-29.5L136.14-29.5 136.14-30 140.39-30ZM163.04-29.85L166.29-29.85 166.29 0 163.04 0 163.04-29.85ZM150.94-30.05L178.39-30.05 178.39-28.55 150.94-28.55 150.94-30.05ZM175.34-28.65L178.39-28.65 178.39-25.2 177.84-25.2 177.84-26Q177.84-27.05 177.16-27.78 176.49-28.5 175.34-28.55L175.34-28.55 175.34-28.65ZM178.39-30.85L178.39-30.85 178.39-29.55 172.79-30.05Q173.79-30.05 174.91-30.18 176.04-30.3 176.99-30.5 177.94-30.7 178.39-30.85ZM163.04-3.2L163.14-3.2 163.14 0 159.49 0 159.49-0.5Q159.54-0.5 159.81-0.5 160.09-0.5 160.09-0.5L160.09-0.5Q161.29-0.5 162.14-1.3 162.99-2.1 163.04-3.2L163.04-3.2ZM166.14 0L166.14-3.2 166.29-3.2Q166.34-2.1 167.19-1.3 168.04-0.5 169.24-0.5L169.24-0.5Q169.24-0.5 169.51-0.5 169.79-0.5 169.79-0.5L169.79-0.5 169.79 0 166.14 0ZM150.94-28.65L153.99-28.65 153.99-28.55Q152.84-28.5 152.16-27.78 151.49-27.05 151.49-26L151.49-26 151.49-25.2 150.94-25.2 150.94-28.65ZM150.94-29.55L150.94-30.85Q151.39-30.7 152.31-30.5 153.24-30.3 154.39-30.18 155.54-30.05 156.54-30.05L156.54-30.05 150.94-29.55ZM185.94-35L189.19-35 189.19 0 185.94 0 185.94-35ZM189.03-1.55L202.69-1.55 202.69 0 189.03 0 189.03-1.55ZM205.24-8.1L205.74-8.1 202.84 0 194.53 0 196.34-1.55Q198.99-1.55 200.66-2.38 202.34-3.2 203.39-4.7 204.44-6.2 205.24-8.1L205.24-8.1ZM185.94-3.65L186.09-3.65 186.09 0 182.09 0 182.09-0.5Q182.09-0.5 182.41-0.5 182.74-0.5 182.74-0.5L182.74-0.5Q184.03-0.5 184.96-1.43 185.89-2.35 185.94-3.65L185.94-3.65ZM186.09-35L186.09-31.35 185.94-31.35Q185.89-32.65 184.96-33.58 184.03-34.5 182.74-34.5L182.74-34.5Q182.74-34.5 182.41-34.5 182.09-34.5 182.09-34.5L182.09-34.5 182.09-35 186.09-35ZM189.19-31.35L189.03-31.35 189.03-35 193.03-35 193.03-34.5Q192.99-34.5 192.69-34.5 192.39-34.5 192.39-34.5L192.39-34.5Q191.09-34.5 190.16-33.58 189.24-32.65 189.19-31.35L189.19-31.35ZM223.13-26.25L223.98-30.7 237.73-0.3 233.78-0.3 223.13-26.25ZM211.38-3.65L214.33-3.65Q213.78-2.15 214.48-1.33 215.18-0.5 216.08-0.5L216.08-0.5 216.48-0.5 216.48 0 206.93 0 206.93-0.5Q206.93-0.5 207.13-0.5 207.33-0.5 207.33-0.5L207.33-0.5Q208.38-0.5 209.48-1.23 210.58-1.95 211.38-3.65L211.38-3.65ZM223.53-30.7L223.98-30.7 224.33-27.25 212.88-0.15 209.73-0.15 221.58-25.55Q221.58-25.55 221.86-26.15 222.13-26.75 222.51-27.63 222.88-28.5 223.18-29.35 223.48-30.2 223.53-30.7L223.53-30.7ZM216.63-11.65L229.88-11.65 229.88-10.15 216.63-10.15 216.63-11.65ZM232.43-3.65L232.43-3.65 236.23-3.65Q236.98-1.95 238.08-1.23 239.18-0.5 240.18-0.5L240.18-0.5Q240.18-0.5 240.38-0.5 240.58-0.5 240.58-0.5L240.58-0.5 240.58 0 230.33 0 230.33-0.5 230.73-0.5Q231.58-0.5 232.28-1.33 232.98-2.15 232.43-3.65ZM246.23-25.55L245.73-30.75 273.43-4.65 273.93 0.7 246.23-25.55ZM245.68-3.1L245.83-3.1 245.83 0 242.08 0 242.08-0.5Q242.08-0.5 242.51-0.5 242.93-0.5 242.93-0.5L242.93-0.5Q244.08-0.5 244.88-1.25 245.68-2 245.68-3.1L245.68-3.1ZM247.78-3.1L247.93-3.1Q247.93-2 248.76-1.25 249.58-0.5 250.68-0.5L250.68-0.5Q250.68-0.5 251.11-0.5 251.53-0.5 251.53-0.5L251.53-0.5 251.53 0 247.78 0 247.78-3.1ZM245.23-30.75L245.73-30.75 247.88-27.95 247.93 0 245.68 0 245.68-24.5Q245.68-27.05 245.46-28.9 245.23-30.75 245.23-30.75L245.23-30.75ZM271.73-30L273.93-30 273.93-5.7Q273.93-4.1 274.03-2.63 274.13-1.15 274.25-0.23 274.38 0.7 274.38 0.7L274.38 0.7 273.93 0.7 271.73-1.95 271.73-30ZM273.93-26.9L273.78-26.9 273.78-30 277.53-30 277.53-29.5Q277.53-29.5 277.11-29.5 276.68-29.5 276.68-29.5L276.68-29.5Q275.58-29.5 274.75-28.75 273.93-28 273.93-26.9L273.93-26.9ZM271.83-26.9L271.73-26.9Q271.68-28 270.88-28.75 270.08-29.5 268.93-29.5L268.93-29.5Q268.93-29.5 268.5-29.5 268.08-29.5 268.08-29.5L268.08-29.5 268.08-30 271.83-30 271.83-26.9ZM287.48-30L298.73-30Q303.68-30 307.28-28.2 310.88-26.4 312.83-23.03 314.78-19.65 314.78-15L314.78-15Q314.78-10.35 312.83-7 310.88-3.65 307.28-1.83 303.68 0 298.73 0L298.73 0 288.08 0 287.98-1.5Q291.48-1.5 293.85-1.5 296.23-1.5 297.48-1.5 298.73-1.5 298.73-1.5L298.73-1.5Q304.53-1.5 307.85-5.13 311.18-8.75 311.18-15L311.18-15Q311.18-21.25 307.85-24.88 304.53-28.5 298.73-28.5L298.73-28.5Q298.73-28.5 297.43-28.5 296.13-28.5 293.63-28.5 291.13-28.5 287.48-28.5L287.48-28.5 287.48-30ZM285.53-30L288.78-30 288.78 0 285.53 0 285.53-30ZM285.53-3.25L285.63-3.25 285.63 0 282.03 0 282.03-0.5Q282.03-0.5 282.35-0.5 282.68-0.5 282.68-0.5L282.68-0.5Q283.88-0.5 284.68-1.33 285.48-2.15 285.53-3.25L285.53-3.25ZM285.63-30L285.63-26.75 285.53-26.75Q285.48-27.95 284.65-28.73 283.83-29.5 282.63-29.5L282.63-29.5Q282.63-29.5 282.33-29.5 282.03-29.5 282.03-29.5L282.03-29.5 282.03-30 285.63-30Z" opacity="1" transform="matrix(1,0,0,1,0,0)" fill="#096a2e" class="wordmark-text-0" data-fill-palette-color="primary" id="text-0"></path></svg></g></svg></g><g transform="matrix(1,0,0,1,0,60.14801180803366)"><svg viewBox="0 0 395.52 19.854647338037203" height="19.854647338037203" width="395.52"><g transform="matrix(1,0,0,1,0,0)"><svg width="395.52" viewBox="2.75 -40.6 1046.84 52.55" height="19.854647338037203" data-palette-color="#096a2e"><path d="M6.95-20L6.95-20Q6.95-18.4 8-17.5 9.05-16.6 10.7-16.03 12.35-15.45 14.2-14.9 16.05-14.35 17.7-13.55 19.35-12.75 20.4-11.35 21.45-9.95 21.45-7.65L21.45-7.65Q21.45-5 20-3.2 18.55-1.4 16.07-0.48 13.6 0.45 10.55 0.45L10.55 0.45Q8.7 0.45 6.75 0.15 4.8-0.15 2.75-0.7L2.75-0.7 3.1-7.4 5.65-7.4 6.15-2.5 5.7-3.05Q6.85-2.75 8.2-2.55 9.55-2.35 10.7-2.35L10.7-2.35Q12.5-2.35 14.03-2.88 15.55-3.4 16.5-4.42 17.45-5.45 17.45-7L17.45-7Q17.45-8.65 16.43-9.6 15.4-10.55 13.75-11.15 12.1-11.75 10.28-12.28 8.45-12.8 6.8-13.63 5.15-14.45 4.1-15.8 3.05-17.15 3.05-19.5L3.05-19.5Q3.05-22.05 4.38-23.68 5.7-25.3 7.88-26.08 10.05-26.85 12.55-26.85L12.55-26.85Q14.25-26.85 16.3-26.5 18.35-26.15 20.5-25.45L20.5-25.45 20.25-19.8 17.7-19.8 16.95-23.95 17.55-23.25Q14.95-24 12.65-24L12.65-24Q10.2-24 8.58-22.98 6.95-21.95 6.95-20ZM46.78 0.45L46.78 0.45Q43.58 0.45 41.01-1.13 38.43-2.7 36.96-5.7 35.48-8.7 35.48-12.9L35.48-12.9Q35.48-16.55 36.51-19.18 37.53-21.8 39.28-23.5 41.03-25.2 43.31-26.03 45.58-26.85 48.03-26.85L48.03-26.85Q50.03-26.85 52.31-26.3 54.58-25.75 56.28-24.8L56.28-24.8 56.08-18.55 53.38-18.55 52.73-23.25 53.13-22.8Q51.88-23.4 50.48-23.65 49.08-23.9 47.98-23.9L47.98-23.9Q45.38-23.9 43.51-22.58 41.63-21.25 40.63-18.85 39.63-16.45 39.63-13.15L39.63-13.15Q39.63-9.75 40.68-7.4 41.73-5.05 43.56-3.85 45.38-2.65 47.68-2.65L47.68-2.65Q49.48-2.65 51.48-3.4 53.48-4.15 55.63-5.65L55.63-5.65 57.03-3.45Q54.43-1.45 51.83-0.5 49.23 0.45 46.78 0.45ZM81.01 0L69.31 0 69.31-2.15 73.86-3.15 73.26-2.4 73.26-35.9 73.86-35.1 69.31-36.1 69.31-38.25 77.26-38.6 77.26-21.7 76.36-21.9Q78.81-24.45 81.54-25.65 84.26-26.85 86.71-26.85L86.71-26.85Q88.91-26.85 90.66-25.95 92.41-25.05 93.39-23.23 94.36-21.4 94.36-18.6L94.36-18.6 94.36-2.4 93.86-3.1 98.26-2.15 98.26 0 86.61 0 86.61-2.15 90.91-3.1 90.36-2.35 90.36-17.7Q90.41-20.8 88.96-22.25 87.51-23.7 85.16-23.7L85.16-23.7Q83.36-23.7 81.16-22.7 78.96-21.7 76.91-19.55L76.91-19.55 77.26-20.4 77.26-2.35 76.76-3.05 81.01-2.15 81.01 0ZM124.49-24.1L124.49-26.25 134.94-26.6 134.94-24.4 131.54-23.4 132.24-24.15 123.54 0.1 118.84 0.1 110.89-24.05 111.59-23.4 108.14-24.1 108.14-26.25 119.14-26.6 119.14-24.4 114.59-23.55 114.99-24.15 121.69-2.45 121.29-2.45 128.54-24 128.84-23.55 124.49-24.1ZM166.47-19.4L166.47-2.25 165.82-3.15 170.42-2.25 170.42-0.05 163.42 0.25 162.82-4.55 163.17-4.4Q160.97-2 158.42-0.78 155.87 0.45 153.47 0.45L153.47 0.45Q150.57 0.45 148.57-1.4 146.57-3.25 146.57-7L146.57-7Q146.57-9.95 147.82-11.53 149.07-13.1 151.27-13.75 153.47-14.4 156.37-14.4L156.37-14.4 162.92-14.4 162.47-13.9 162.47-18.7Q162.47-21.45 161.02-22.63 159.57-23.8 157.02-23.8L157.02-23.8Q155.67-23.8 154.15-23.53 152.62-23.25 150.92-22.65L150.92-22.65 151.52-23.3 151.02-18.75 148.37-18.75 147.97-24.95Q150.82-25.9 153.32-26.38 155.82-26.85 157.92-26.85L157.92-26.85Q161.92-26.85 164.2-25.08 166.47-23.3 166.47-19.4L166.47-19.4ZM150.62-7.35L150.62-7.35Q150.62-4.9 151.8-3.75 152.97-2.6 154.77-2.6L154.77-2.6Q156.52-2.6 158.65-3.68 160.77-4.75 162.77-6.6L162.77-6.6 162.47-5.55 162.47-12.25 162.92-11.8 156.97-11.8Q153.42-11.8 152.02-10.73 150.62-9.65 150.62-7.35ZM164.37-37.15L154.47-31 153.02-33.05 162.12-40.2 164.37-37.15ZM189.85-38.6L189.85-2.55 189.4-3.1 193.75-2.15 193.75 0 181.9 0 181.9-2.15 186.25-3.1 185.85-2.55 185.85-35.65 186.25-35.2 181.9-36.1 181.9-38.25 189.85-38.6ZM218.03 0.45L218.03 0.45Q214.68 0.45 212.11-1.07 209.53-2.6 208.08-5.55 206.63-8.5 206.63-12.75L206.63-12.75Q206.63-17.1 208.13-20.25 209.63-23.4 212.38-25.13 215.13-26.85 218.83-26.85L218.83-26.85Q222.33-26.85 224.61-25.38 226.88-23.9 228.01-21.3 229.13-18.7 229.13-15.35L229.13-15.35Q229.13-14.8 229.08-14.25 229.03-13.7 228.93-12.9L228.93-12.9 209.68-12.9 209.68-15.75 225.43-15.75 224.98-15.45Q225.03-17.7 224.43-19.6 223.83-21.5 222.38-22.65 220.93-23.8 218.53-23.8L218.53-23.8Q215.98-23.8 214.23-22.45 212.48-21.1 211.63-18.75 210.78-16.4 210.78-13.3L210.78-13.3Q210.78-10 211.73-7.63 212.68-5.25 214.51-3.95 216.33-2.65 218.98-2.65L218.98-2.65Q220.83-2.65 223.03-3.38 225.23-4.1 227.58-5.6L227.58-5.6 229.03-3.35Q226.23-1.45 223.43-0.5 220.63 0.45 218.03 0.45ZM254.41 0L242.76 0 242.76-2.15 247.26-3.15 246.66-2.4 246.66-23.9 247.26-23.15 242.76-24.1 242.76-26.25 249.76-26.6 250.31-21.7 249.76-21.9Q252.26-24.45 254.99-25.65 257.71-26.85 260.16-26.85L260.16-26.85Q263.46-26.85 265.64-24.83 267.81-22.8 267.76-18.55L267.76-18.55 267.76-2.4 267.26-3.1 271.66-2.15 271.66 0 260.01 0 260.01-2.15 264.36-3.1 263.76-2.35 263.76-17.7Q263.76-20.8 262.36-22.25 260.96-23.7 258.61-23.7L258.61-23.7Q256.76-23.7 254.59-22.7 252.41-21.7 250.31-19.6L250.31-19.6 250.66-20.4 250.66-2.35 250.16-3.05 254.41-2.15 254.41 0ZM291.59-26.55L291.59-2.55 291.14-3.1 295.49-2.15 295.49 0 283.69 0 283.69-2.15 288.04-3.1 287.59-2.55 287.59-23.65 287.99-23.2 283.69-24.1 283.69-26.25 291.59-26.55ZM296.29-37.15L286.39-31 284.94-33.05 294.04-40.2 296.29-37.15ZM339.1 11.5L326.6 11.5 326.6 9.35 331.15 8.3 330.5 9.05 330.5-23.8 331.1-23.15 326.6-24.1 326.6-26.25 333.6-26.6 334.1-22.25 333.65-22.55Q335.95-24.7 338.25-25.78 340.55-26.85 342.8-26.85L342.8-26.85Q345.6-26.85 347.83-25.3 350.05-23.75 351.35-20.83 352.65-17.9 352.65-13.65L352.65-13.65Q352.65-9.05 351.08-5.9 349.5-2.75 346.65-1.13 343.8 0.5 339.95 0.5L339.95 0.5Q338.55 0.5 337.05 0.25 335.55 0 333.9-0.4L333.9-0.4 334.5-0.95 334.5 9.05 333.95 8.35 339.1 9.35 339.1 11.5ZM339.5-2.5L339.5-2.5Q343.9-2.5 346.2-5.35 348.5-8.2 348.5-13.25L348.5-13.25Q348.5-16.55 347.58-18.9 346.65-21.25 345.05-22.53 343.45-23.8 341.4-23.8L341.4-23.8Q339.65-23.8 337.78-22.88 335.9-21.95 334-20.05L334-20.05 334.5-21.3 334.5-2.55 333.95-3.45Q337-2.5 339.5-2.5ZM376.68 0.45L376.68 0.45Q373.38 0.45 371.23-1.6 369.08-3.65 369.08-7.9L369.08-7.9 369.08-23.85 369.58-23.15 365.13-24.1 365.13-26.25 373.08-26.55 373.08-8.6Q373.08-5.6 374.48-4.15 375.88-2.7 378.23-2.7L378.23-2.7Q380.08-2.7 382.23-3.7 384.38-4.7 386.48-6.8L386.48-6.8 386.18-5.9 386.18-23.95 386.68-23.15 382.23-24.1 382.23-26.25 390.18-26.6 390.18-2.45 389.58-3.1 394.08-2.25 394.08-0.05 387.08 0.25 386.48-4.7 387.03-4.5Q384.58-1.95 381.86-0.75 379.13 0.45 376.68 0.45ZM379.23-30.95L379.23-30.95Q377.73-30.95 376.53-31.53 375.33-32.1 374.66-33.18 373.98-34.25 373.98-35.7L373.98-35.7Q373.98-37.15 374.66-38.25 375.33-39.35 376.56-39.98 377.78-40.6 379.33-40.6L379.33-40.6Q380.88-40.6 382.03-40.03 383.18-39.45 383.88-38.38 384.58-37.3 384.58-35.85L384.58-35.85Q384.58-34.4 383.91-33.3 383.23-32.2 382.03-31.58 380.83-30.95 379.23-30.95ZM379.23-33L379.23-33Q380.53-33 381.23-33.8 381.93-34.6 381.93-35.8L381.93-35.8Q381.93-37 381.26-37.77 380.58-38.55 379.28-38.55L379.28-38.55Q377.98-38.55 377.31-37.75 376.63-36.95 376.63-35.75L376.63-35.75Q376.63-34.55 377.31-33.77 377.98-33 379.23-33ZM405.06 11.95L405.06 11.95Q404.46 11.95 403.86 11.9 403.26 11.85 402.56 11.75L402.56 11.75 402.91 8.8Q403.41 8.85 403.86 8.88 404.31 8.9 404.66 8.9L404.66 8.9Q407.41 8.9 408.56 7.55 409.71 6.2 409.71 2.95L409.71 2.95 409.71-23.8 410.26-23.15 405.81-24.1 405.81-26.25 413.71-26.55 413.71 1.65Q413.71 4.2 413.24 6.13 412.76 8.05 411.71 9.33 410.66 10.6 409.01 11.28 407.36 11.95 405.06 11.95ZM411.31-31.95L411.31-31.95Q410.16-31.95 409.41-32.7 408.66-33.45 408.66-34.75L408.66-34.75Q408.66-36.1 409.44-36.83 410.21-37.55 411.36-37.55L411.36-37.55Q412.56-37.55 413.31-36.85 414.06-36.15 414.06-34.75L414.06-34.75Q414.06-33.4 413.26-32.68 412.46-31.95 411.31-31.95ZM441.04 0.45L441.04 0.45Q437.84 0.45 435.27-1.13 432.69-2.7 431.22-5.7 429.74-8.7 429.74-12.9L429.74-12.9Q429.74-16.55 430.77-19.18 431.79-21.8 433.54-23.5 435.29-25.2 437.57-26.03 439.84-26.85 442.29-26.85L442.29-26.85Q444.29-26.85 446.57-26.3 448.84-25.75 450.54-24.8L450.54-24.8 450.34-18.55 447.64-18.55 446.99-23.25 447.39-22.8Q446.14-23.4 444.74-23.65 443.34-23.9 442.24-23.9L442.24-23.9Q439.64-23.9 437.77-22.58 435.89-21.25 434.89-18.85 433.89-16.45 433.89-13.15L433.89-13.15Q433.89-9.75 434.94-7.4 435.99-5.05 437.82-3.85 439.64-2.65 441.94-2.65L441.94-2.65Q443.74-2.65 445.74-3.4 447.74-4.15 449.89-5.65L449.89-5.65 451.29-3.45Q448.69-1.45 446.09-0.5 443.49 0.45 441.04 0.45ZM440.39-33.85L448.09-39.7 449.54-38.1 442.94-31.7 440.59-31.5 433.64-38.1 435.14-39.7 443.04-33.85 440.39-33.85ZM475.32 0L463.57 0 463.57-2.15 468.12-3.15 467.52-2.3 467.52-35.8 467.92-35.2 463.57-36.1 463.57-38.25 471.52-38.6 471.52-15.35 470.77-16 477.67-16 476.62-15.45 481.92-24.05 482.27-23.5 478.17-24.1 478.17-26.25 489.12-26.6 489.12-24.45 484.67-23.55 485.82-24.3 479.72-14.45 479.67-15.65 487.12-2.45 486.37-3.1 490.47-2.15 490.47 0 484.22 0 476.77-13.6 477.57-13.2 470.77-13.2 471.52-13.65 471.52-2.3 470.97-3.15 475.32-2.15 475.32 0ZM500.75 11.7L500.75 11.7 501.1 8.75Q501.7 8.85 502.23 8.9 502.75 8.95 503.2 8.95L503.2 8.95Q505.65 8.95 507.18 7.83 508.7 6.7 509.75 4.45 510.8 2.2 511.9-1.15L511.9-1.15 511.75 0.35 502.4-24 502.95-23.55 499.7-24.1 499.7-26.25 510.65-26.6 510.65-24.4 506.15-23.65 506.45-24.1 513.9-2.85 513-3.05 520.15-24 520.45-23.55 516.05-24.1 516.05-26.25 526.65-26.6 526.65-24.4 523.15-23.6 523.85-24.05 515.05 0.1Q514.15 2.6 513.18 4.75 512.2 6.9 510.95 8.53 509.7 10.15 507.9 11.05 506.1 11.95 503.55 11.95L503.55 11.95Q502.4 11.95 500.75 11.7ZM561.96-20L561.96-20Q561.96-18.4 563.01-17.5 564.06-16.6 565.71-16.03 567.36-15.45 569.21-14.9 571.06-14.35 572.71-13.55 574.36-12.75 575.41-11.35 576.46-9.95 576.46-7.65L576.46-7.65Q576.46-5 575.01-3.2 573.56-1.4 571.09-0.48 568.61 0.45 565.56 0.45L565.56 0.45Q563.71 0.45 561.76 0.15 559.81-0.15 557.76-0.7L557.76-0.7 558.11-7.4 560.66-7.4 561.16-2.5 560.71-3.05Q561.86-2.75 563.21-2.55 564.56-2.35 565.71-2.35L565.71-2.35Q567.51-2.35 569.04-2.88 570.56-3.4 571.51-4.42 572.46-5.45 572.46-7L572.46-7Q572.46-8.65 571.44-9.6 570.41-10.55 568.76-11.15 567.11-11.75 565.29-12.28 563.46-12.8 561.81-13.63 560.16-14.45 559.11-15.8 558.06-17.15 558.06-19.5L558.06-19.5Q558.06-22.05 559.39-23.68 560.71-25.3 562.89-26.08 565.06-26.85 567.56-26.85L567.56-26.85Q569.26-26.85 571.31-26.5 573.36-26.15 575.51-25.45L575.51-25.45 575.26-19.8 572.71-19.8 571.96-23.95 572.56-23.25Q569.96-24 567.66-24L567.66-24Q565.21-24 563.59-22.98 561.96-21.95 561.96-20ZM601.74 0L590.09 0 590.09-2.15 594.59-3.15 593.99-2.4 593.99-23.9 594.59-23.15 590.09-24.1 590.09-26.25 597.09-26.6 597.64-21.7 597.09-21.9Q599.59-24.45 602.32-25.65 605.04-26.85 607.49-26.85L607.49-26.85Q610.79-26.85 612.97-24.83 615.14-22.8 615.09-18.55L615.09-18.55 615.09-2.4 614.59-3.1 618.99-2.15 618.99 0 607.34 0 607.34-2.15 611.69-3.1 611.09-2.35 611.09-17.7Q611.09-20.8 609.69-22.25 608.29-23.7 605.94-23.7L605.94-23.7Q604.09-23.7 601.92-22.7 599.74-21.7 597.64-19.6L597.64-19.6 597.99-20.4 597.99-2.35 597.49-3.05 601.74-2.15 601.74 0ZM651.57-19.4L651.57-2.25 650.92-3.15 655.52-2.25 655.52-0.05 648.52 0.25 647.92-4.55 648.27-4.4Q646.07-2 643.52-0.78 640.97 0.45 638.57 0.45L638.57 0.45Q635.67 0.45 633.67-1.4 631.67-3.25 631.67-7L631.67-7Q631.67-9.95 632.92-11.53 634.17-13.1 636.37-13.75 638.57-14.4 641.47-14.4L641.47-14.4 648.02-14.4 647.57-13.9 647.57-18.7Q647.57-21.45 646.12-22.63 644.67-23.8 642.12-23.8L642.12-23.8Q640.77-23.8 639.25-23.53 637.72-23.25 636.02-22.65L636.02-22.65 636.62-23.3 636.12-18.75 633.47-18.75 633.07-24.95Q635.92-25.9 638.42-26.38 640.92-26.85 643.02-26.85L643.02-26.85Q647.02-26.85 649.3-25.08 651.57-23.3 651.57-19.4L651.57-19.4ZM635.72-7.35L635.72-7.35Q635.72-4.9 636.9-3.75 638.07-2.6 639.87-2.6L639.87-2.6Q641.62-2.6 643.75-3.68 645.87-4.75 647.87-6.6L647.87-6.6 647.57-5.55 647.57-12.25 648.02-11.8 642.07-11.8Q638.52-11.8 637.12-10.73 635.72-9.65 635.72-7.35ZM678 0.45L678 0.45Q675.25 0.45 673-1.07 670.75-2.6 669.45-5.58 668.15-8.55 668.15-12.8L668.15-12.8Q668.15-19.75 671.7-23.3 675.25-26.85 681.45-26.85L681.45-26.85Q682.75-26.85 684.18-26.65 685.6-26.45 687.1-26.05L687.1-26.05 686.3-25.6 686.3-35.65 686.75-35.1 682.15-36.1 682.15-38.25 690.3-38.6 690.3-2.45 689.7-3.15 694.2-2.25 694.2-0.05 687.2 0.25 686.6-4.05 687.1-3.85Q684.85-1.7 682.58-0.63 680.3 0.45 678 0.45ZM679.4-2.6L679.4-2.6Q681.15-2.6 683.03-3.53 684.9-4.45 686.8-6.3L686.8-6.3 686.3-4.95 686.3-23.9 686.85-22.9Q683.8-23.9 681.3-23.9L681.3-23.9Q676.9-23.9 674.6-21.05 672.3-18.2 672.3-13.15L672.3-13.15Q672.3-9.85 673.23-7.48 674.15-5.1 675.78-3.85 677.4-2.6 679.4-2.6ZM718.23 0L706.58 0 706.58-2.15 711.08-3.15 710.48-2.4 710.48-23.9 711.08-23.15 706.58-24.1 706.58-26.25 713.58-26.6 714.13-21.7 713.58-21.9Q716.08-24.45 718.81-25.65 721.53-26.85 723.98-26.85L723.98-26.85Q727.28-26.85 729.46-24.83 731.63-22.8 731.58-18.55L731.58-18.55 731.58-2.4 731.08-3.1 735.48-2.15 735.48 0 723.83 0 723.83-2.15 728.18-3.1 727.58-2.35 727.58-17.7Q727.58-20.8 726.18-22.25 724.78-23.7 722.43-23.7L722.43-23.7Q720.58-23.7 718.41-22.7 716.23-21.7 714.13-19.6L714.13-19.6 714.48-20.4 714.48-2.35 713.98-3.05 718.23-2.15 718.23 0ZM760.31-26.85L760.31-26.85Q765.81-26.85 768.94-23.4 772.06-19.95 772.06-13.65L772.06-13.65Q772.06-9.4 770.54-6.23 769.01-3.05 766.21-1.3 763.41 0.45 759.46 0.45L759.46 0.45Q754.06 0.45 751.01-2.93 747.96-6.3 747.96-12.65L747.96-12.65Q747.96-17.05 749.44-20.23 750.91-23.4 753.69-25.13 756.46-26.85 760.31-26.85ZM760.11-23.9L760.11-23.9Q756.26-23.9 754.21-21 752.16-18.1 752.16-12.85L752.16-12.85Q752.16-7.7 754.11-5.1 756.06-2.5 759.71-2.5L759.71-2.5Q762.36-2.5 764.19-3.83 766.01-5.15 766.94-7.6 767.86-10.05 767.86-13.45L767.86-13.45Q767.86-18.55 765.84-21.23 763.81-23.9 760.11-23.9ZM825.38-19.4L825.38-2.25 824.73-3.15 829.33-2.25 829.33-0.05 822.33 0.25 821.73-4.55 822.08-4.4Q819.88-2 817.33-0.78 814.78 0.45 812.38 0.45L812.38 0.45Q809.48 0.45 807.48-1.4 805.48-3.25 805.48-7L805.48-7Q805.48-9.95 806.73-11.53 807.98-13.1 810.18-13.75 812.38-14.4 815.28-14.4L815.28-14.4 821.83-14.4 821.38-13.9 821.38-18.7Q821.38-21.45 819.93-22.63 818.48-23.8 815.93-23.8L815.93-23.8Q814.58-23.8 813.05-23.53 811.53-23.25 809.83-22.65L809.83-22.65 810.43-23.3 809.93-18.75 807.28-18.75 806.88-24.95Q809.73-25.9 812.23-26.38 814.73-26.85 816.83-26.85L816.83-26.85Q820.83-26.85 823.1-25.08 825.38-23.3 825.38-19.4L825.38-19.4ZM809.53-7.35L809.53-7.35Q809.53-4.9 810.7-3.75 811.88-2.6 813.68-2.6L813.68-2.6Q815.43-2.6 817.55-3.68 819.68-4.75 821.68-6.6L821.68-6.6 821.38-5.55 821.38-12.25 821.83-11.8 815.88-11.8Q812.33-11.8 810.93-10.73 809.53-9.65 809.53-7.35ZM873.49 0L860.74 0 860.74-2.15 865.14-3.1 864.64-2.35 864.64-23.9 865.19-23.15 860.74-24.1 860.74-26.25 867.74-26.6 868.29-21.7 867.74-21.9Q869.99-24.25 872.14-25.55 874.29-26.85 876.84-26.85L876.84-26.85Q878.44-26.85 880.19-26.35L880.19-26.35 879.89-19.05 877.39-19.05 876.79-24.3 877.24-23.4Q876.89-23.5 876.49-23.55 876.09-23.6 875.69-23.6L875.69-23.6Q873.69-23.6 871.81-22.4 869.94-21.2 868.24-19.3L868.24-19.3 868.64-20.5 868.64-2.35 868.04-3.1 873.49-2.15 873.49 0ZM890.97 11.7L890.97 11.7 891.32 8.75Q891.92 8.85 892.44 8.9 892.97 8.95 893.42 8.95L893.42 8.95Q895.87 8.95 897.39 7.83 898.92 6.7 899.97 4.45 901.02 2.2 902.12-1.15L902.12-1.15 901.97 0.35 892.62-24 893.17-23.55 889.92-24.1 889.92-26.25 900.87-26.6 900.87-24.4 896.37-23.65 896.67-24.1 904.12-2.85 903.22-3.05 910.37-24 910.67-23.55 906.27-24.1 906.27-26.25 916.87-26.6 916.87-24.4 913.37-23.6 914.07-24.05 905.27 0.1Q904.37 2.6 903.39 4.75 902.42 6.9 901.17 8.53 899.92 10.15 898.12 11.05 896.32 11.95 893.77 11.95L893.77 11.95Q892.62 11.95 890.97 11.7ZM939.55 0.45L939.55 0.45Q936.35 0.45 933.77-1.13 931.2-2.7 929.72-5.7 928.25-8.7 928.25-12.9L928.25-12.9Q928.25-16.55 929.27-19.18 930.3-21.8 932.05-23.5 933.8-25.2 936.07-26.03 938.35-26.85 940.8-26.85L940.8-26.85Q942.8-26.85 945.07-26.3 947.35-25.75 949.05-24.8L949.05-24.8 948.85-18.55 946.15-18.55 945.5-23.25 945.9-22.8Q944.65-23.4 943.25-23.65 941.85-23.9 940.75-23.9L940.75-23.9Q938.15-23.9 936.27-22.58 934.4-21.25 933.4-18.85 932.4-16.45 932.4-13.15L932.4-13.15Q932.4-9.75 933.45-7.4 934.5-5.05 936.32-3.85 938.15-2.65 940.45-2.65L940.45-2.65Q942.25-2.65 944.25-3.4 946.25-4.15 948.4-5.65L948.4-5.65 949.8-3.45Q947.2-1.45 944.6-0.5 942 0.45 939.55 0.45ZM973.78 0L962.08 0 962.08-2.15 966.63-3.15 966.03-2.4 966.03-35.9 966.63-35.1 962.08-36.1 962.08-38.25 970.03-38.6 970.03-21.7 969.13-21.9Q971.58-24.45 974.3-25.65 977.03-26.85 979.48-26.85L979.48-26.85Q981.68-26.85 983.43-25.95 985.18-25.05 986.15-23.23 987.13-21.4 987.13-18.6L987.13-18.6 987.13-2.4 986.63-3.1 991.03-2.15 991.03 0 979.38 0 979.38-2.15 983.68-3.1 983.13-2.35 983.13-17.7Q983.18-20.8 981.73-22.25 980.28-23.7 977.93-23.7L977.93-23.7Q976.13-23.7 973.93-22.7 971.73-21.7 969.68-19.55L969.68-19.55 970.03-20.4 970.03-2.35 969.53-3.05 973.78-2.15 973.78 0ZM1010.31-38.6L1010.31-2.55 1009.86-3.1 1014.21-2.15 1014.21 0 1002.36 0 1002.36-2.15 1006.71-3.1 1006.31-2.55 1006.31-35.65 1006.71-35.2 1002.36-36.1 1002.36-38.25 1010.31-38.6ZM1038.49 0.45L1038.49 0.45Q1035.14 0.45 1032.56-1.07 1029.99-2.6 1028.54-5.55 1027.09-8.5 1027.09-12.75L1027.09-12.75Q1027.09-17.1 1028.59-20.25 1030.09-23.4 1032.84-25.13 1035.59-26.85 1039.29-26.85L1039.29-26.85Q1042.79-26.85 1045.06-25.38 1047.34-23.9 1048.46-21.3 1049.59-18.7 1049.59-15.35L1049.59-15.35Q1049.59-14.8 1049.54-14.25 1049.49-13.7 1049.39-12.9L1049.39-12.9 1030.14-12.9 1030.14-15.75 1045.89-15.75 1045.44-15.45Q1045.49-17.7 1044.89-19.6 1044.29-21.5 1042.84-22.65 1041.39-23.8 1038.99-23.8L1038.99-23.8Q1036.44-23.8 1034.69-22.45 1032.94-21.1 1032.09-18.75 1031.24-16.4 1031.24-13.3L1031.24-13.3Q1031.24-10 1032.19-7.63 1033.14-5.25 1034.96-3.95 1036.79-2.65 1039.44-2.65L1039.44-2.65Q1041.29-2.65 1043.49-3.38 1045.69-4.1 1048.04-5.6L1048.04-5.6 1049.49-3.35Q1046.69-1.45 1043.89-0.5 1041.09 0.45 1038.49 0.45Z" opacity="1" transform="matrix(1,0,0,1,0,0)" fill="#096a2e" class="slogan-text-1" data-fill-palette-color="secondary" id="text-1"></path></svg></g></svg></g></svg></g></svg></g><g></g></svg></g><defs></defs></svg><rect width="395.52" height="79.60463596623968" fill="none" stroke="none" visibility="hidden"></rect></g></svg></g></svg>