<svg xmlns="http://www.w3.org/2000/svg" version="1.1" xmlns:xlink="http://www.w3.org/1999/xlink" xmlns:svgjs="http://svgjs.dev/svgjs" width="1500" height="295" viewBox="0 0 1500 295"><g transform="matrix(1,0,0,1,-0.9090909090909918,-0.6853977524864376)"><svg viewBox="0 0 396 78" data-background-color="#ffffff" preserveAspectRatio="xMidYMid meet" height="295" width="1500" xmlns="http://www.w3.org/2000/svg" xmlns:xlink="http://www.w3.org/1999/xlink"><g id="tight-bounds" transform="matrix(1,0,0,1,0.2400000000000091,0.18122381252183573)"><svg viewBox="0 0 395.52 77.63755237495631" height="77.63755237495631" width="395.52"><g><svg viewBox="0 0 397.4975999999999 78.02574013683109" height="77.63755237495631" width="395.52"><g><svg viewBox="0 0 397.4975999999999 78.02574013683109" height="78.02574013683109" width="397.4975999999999"><g id="textblocktransform"><svg viewBox="0 0 397.4975999999999 78.02574013683109" height="78.02574013683109" width="397.4975999999999" id="textblock"><g><rect width="397.4975999999999" height="4.0610879720666135" x="0" y="49.81662223502535" fill="#096a2e" opacity="1" stroke-width="0" stroke="transparent" fill-opacity="1" class="rect-qz-0" data-fill-palette-color="primary" rx="1%" id="qz-0" data-palette-color="#096a2e"></rect></g><g transform="matrix(1,0,0,1,0.9887999999999693,0)"><svg viewBox="0 0 395.52 45.03261807944949" height="45.03261807944949" width="395.52"><g transform="matrix(1,0,0,1,0,0)"><svg width="395.52" viewBox="2.25 -35.7 319.68 36.400000000000006" height="45.03261807944949" data-palette-color="#096a2e"><path d="M35.7-14.6L36.1-14.6 36.55-6Q35.45-4.15 33.6-2.65 31.75-1.15 29-0.23 26.25 0.7 22.5 0.7L22.5 0.7Q16.4 0.65 11.83-1.53 7.25-3.7 4.75-7.75 2.25-11.8 2.25-17.55L2.25-17.55Q2.25-23.15 4.7-27.23 7.15-31.3 11.73-33.5 16.3-35.7 22.65-35.7L22.65-35.7Q26.65-35.7 29.83-34.9 33-34.1 35.1-32.95L35.1-32.95 35.2-24.4 34.75-24.4Q33.4-29.35 30.35-31.48 27.3-33.6 23.2-33.6L23.2-33.6Q19.2-33.6 16.35-31.65 13.5-29.7 11.95-26.15 10.4-22.6 10.4-17.65L10.4-17.65Q10.4-12.7 11.88-9.1 13.35-5.5 16.07-3.5 18.8-1.5 22.5-1.4L22.5-1.4Q26.35-1.4 29-2.65 31.65-3.9 33.27-6.8 34.9-9.7 35.7-14.6L35.7-14.6ZM51.05-30L51.05-30 56.4-30Q58.5-30 60.45-29.58 62.4-29.15 63.95-28.23 65.5-27.3 66.42-25.73 67.35-24.15 67.35-21.8L67.35-21.8Q67.35-20.05 66.62-18.32 65.9-16.6 64.37-15.35 62.85-14.1 60.4-13.7L60.4-13.7Q61.85-13.25 63.17-11.95 64.5-10.65 65.2-9.5L65.2-9.5Q65.45-9.1 65.95-8.22 66.45-7.35 67.22-6.23 68-5.1 68.85-3.9L68.85-3.9Q69.85-2.55 70.6-1.83 71.35-1.1 72.15-0.8 72.95-0.5 74-0.5L74-0.5 74 0 69.8 0Q67.1 0 65.22-0.4 63.35-0.8 62-1.88 60.65-2.95 59.45-4.8L59.45-4.8Q59-5.45 58.5-6.38 58-7.3 57.5-8.25 57-9.2 56.62-10.1 56.25-11 56.1-11.6L56.1-11.6Q55.45-13.2 54.62-13.93 53.8-14.65 53.1-14.65L53.1-14.65 53.1-15.1Q53.1-15.1 53.45-15.1 53.8-15.1 54.35-15.1L54.35-15.1Q55.4-15.1 56.42-15.48 57.45-15.85 58.3-16.93 59.15-18 59.55-20.1L59.55-20.1Q59.65-20.4 59.72-20.95 59.8-21.5 59.75-22.2L59.75-22.2Q59.65-24.05 59.07-25.15 58.5-26.25 57.65-26.85 56.8-27.45 55.92-27.68 55.05-27.9 54.4-27.9L54.4-27.9Q53.45-27.95 52.67-27.93 51.9-27.9 51.5-27.95L51.5-27.95Q51.45-27.95 51.35-28.48 51.25-29 51.15-29.5 51.05-30 51.05-30ZM44.3-30L51.55-30 51.55 0 44.3 0 44.3-30ZM44.35-3.15L44.45-3.15 44.65 0 41.05 0 41.05-0.5Q41.1-0.5 41.32-0.5 41.55-0.5 41.65-0.5L41.65-0.5Q42.75-0.5 43.52-1.28 44.3-2.05 44.35-3.15L44.35-3.15ZM44.65-30L44.45-26.9 44.35-26.9Q44.3-28.05 43.52-28.78 42.75-29.5 41.7-29.5L41.7-29.5Q41.55-29.5 41.32-29.5 41.1-29.5 41.05-29.5L41.05-29.5 41.05-30 44.65-30ZM51.2 0L51.45-3.15 51.55-3.15Q51.55-1.9 52.42-1.2 53.3-0.5 54.25-0.5L54.25-0.5Q54.25-0.5 54.47-0.5 54.7-0.5 54.8-0.5L54.8-0.5 54.8 0 51.2 0ZM76.95-30L84.15-30 84.15 0 76.95 0 76.95-30ZM84.05-2L95.85-2 97 0 84.05 0 84.05-2ZM84.05-15.85L94.15-15.85 94.15-13.85 84.05-13.85 84.05-15.85ZM84.05-30L96.4-30 96.4-28 84.05-28 84.05-30ZM98.6-9.2L99.05-9.2 97.15 0 88.5 0 90.05-2Q92.2-2 93.87-2.88 95.55-3.75 96.75-5.38 97.95-7 98.6-9.2L98.6-9.2ZM89.85-13.95L94.15-13.95 94.15-9.55 93.65-9.55 93.65-9.95Q93.65-11.6 92.62-12.73 91.6-13.85 89.85-13.85L89.85-13.85 89.85-13.95ZM93.65-20.15L94.15-20.15 94.15-15.75 89.85-15.75 89.85-15.85Q91.6-15.9 92.62-17.03 93.65-18.15 93.65-19.8L93.65-19.8 93.65-20.15ZM91.35-28.1L96.4-28.1 96.4-22.8 95.9-22.8 95.9-23.25Q95.9-25.45 94.72-26.7 93.55-27.95 91.35-28L91.35-28 91.35-28.1ZM96.4-30.75L96.4-30.75 96.4-29.55 91.15-30Q92.6-30 94.2-30.28 95.8-30.55 96.4-30.75ZM76.95-3.15L77.1-3.15 77.3 0 73.6 0 73.6-0.5Q73.6-0.5 73.9-0.5 74.2-0.5 74.25-0.5L74.25-0.5Q75.35-0.5 76.15-1.28 76.95-2.05 76.95-3.15L76.95-3.15ZM77.3-30L77.1-26.85 76.95-26.85Q76.95-28 76.15-28.75 75.35-29.5 74.25-29.5L74.25-29.5Q74.2-29.5 73.9-29.5 73.6-29.5 73.6-29.5L73.6-29.5 73.6-30 77.3-30ZM106.74-30L118.44-30Q123.79-30 127.64-28.23 131.49-26.45 133.54-23.08 135.59-19.7 135.59-15L135.59-15Q135.59-10.3 133.54-6.95 131.49-3.6 127.64-1.8 123.79 0 118.44 0L118.44 0 107.34 0 107.24-2Q111.04-2 113.37-2 115.69-2 116.77-2 117.84-2 117.84-2L117.84-2Q122.54-2 125.27-5.45 127.99-8.9 127.99-15L127.99-15Q127.99-21.1 125.27-24.58 122.54-28.05 117.84-28.05L117.84-28.05Q117.84-28.05 116.74-28.05 115.64-28.05 113.19-28.05 110.74-28.05 106.74-28.05L106.74-28.05 106.74-30ZM104.99-30L112.19-30 112.19 0 104.99 0 104.99-30ZM104.99-3.2L105.14-3.2 105.14 0 101.54 0 101.54-0.5Q101.54-0.5 101.84-0.5 102.14-0.5 102.19-0.5L102.19-0.5Q103.34-0.5 104.17-1.3 104.99-2.1 104.99-3.2L104.99-3.2ZM105.09-30L105.09-26.85 104.99-26.85Q104.94-28 104.12-28.75 103.29-29.5 102.14-29.5L102.14-29.5Q102.14-29.5 101.84-29.5 101.54-29.5 101.54-29.5L101.54-29.5 101.54-30 105.09-30ZM141.89-30L149.09-30 149.09 0 141.89 0 141.89-30ZM141.89-3.15L142.04-3.15 142.04 0 138.39 0 138.39-0.5Q138.39-0.5 138.69-0.5 138.99-0.5 139.04-0.5L139.04-0.5Q140.19-0.5 141.04-1.28 141.89-2.05 141.89-3.15L141.89-3.15ZM148.99 0L148.99-3.15 149.09-3.15Q149.14-2.05 149.97-1.28 150.79-0.5 151.99-0.5L151.99-0.5Q151.99-0.5 152.27-0.5 152.54-0.5 152.59-0.5L152.59-0.5 152.59 0 148.99 0ZM149.09-26.85L148.99-26.85 148.99-30 152.59-30 152.54-29.5Q152.54-29.5 152.29-29.5 152.04-29.5 151.99-29.5L151.99-29.5Q150.79-29.5 149.97-28.75 149.14-28 149.09-26.85L149.09-26.85ZM142.04-30L142.04-26.85 141.89-26.85Q141.89-28 141.04-28.75 140.19-29.5 138.99-29.5L138.99-29.5Q138.99-29.5 138.69-29.5 138.39-29.5 138.39-29.5L138.39-29.5 138.39-30 142.04-30ZM165.64-29.85L172.89-29.85 172.89 0 165.64 0 165.64-29.85ZM154.79-30.05L183.74-30.05 183.74-28.05 154.79-28.05 154.79-30.05ZM178.69-28.2L183.74-28.2 183.74-22.9 183.24-22.9 183.24-23.35Q183.29-25.5 182.06-26.75 180.84-28 178.69-28.05L178.69-28.05 178.69-28.2ZM183.74-30.8L183.74-30.8 183.74-29.55 178.49-30.05Q179.44-30.05 180.54-30.18 181.64-30.3 182.54-30.48 183.44-30.65 183.74-30.8ZM165.64-3.15L165.74-3.15 165.74 0 162.39 0 162.39-0.5Q162.39-0.5 162.66-0.5 162.94-0.5 162.94-0.5L162.94-0.5Q164.04-0.5 164.81-1.28 165.59-2.05 165.64-3.15L165.64-3.15ZM172.74 0L172.74-3.15 172.89-3.15Q172.89-2.05 173.69-1.28 174.49-0.5 175.64-0.5L175.64-0.5Q175.64-0.5 175.91-0.5 176.19-0.5 176.19-0.5L176.19-0.5 176.19 0 172.74 0ZM154.79-28.2L159.89-28.2 159.89-28.05Q157.69-28 156.51-26.75 155.34-25.5 155.34-23.35L155.34-23.35 155.34-22.9 154.79-22.9 154.79-28.2ZM154.79-29.55L154.79-30.8Q155.24-30.7 156.11-30.5 156.99-30.3 158.06-30.18 159.14-30.05 160.04-30.05L160.04-30.05 154.79-29.55ZM190.19-35L197.69-35 197.69 0 190.19 0 190.19-35ZM197.54-2.15L210.89-2.15 212.09 0 197.54 0 197.54-2.15ZM214.04-10.2L214.54-10.2 212.24 0 202.44 0 204.24-2.15Q206.74-2.15 208.64-3.13 210.54-4.1 211.89-5.93 213.24-7.75 214.04-10.2L214.04-10.2ZM190.19-3.65L190.34-3.65 190.34 0 186.34 0 186.34-0.5Q186.34-0.5 186.66-0.5 186.99-0.5 186.99-0.5L186.99-0.5Q188.29-0.5 189.21-1.43 190.14-2.35 190.19-3.65L190.19-3.65ZM190.34-35L190.34-31.35 190.19-31.35Q190.14-32.65 189.21-33.58 188.29-34.5 186.99-34.5L186.99-34.5Q186.99-34.5 186.66-34.5 186.34-34.5 186.34-34.5L186.34-34.5 186.34-35 190.34-35ZM197.69-31.35L197.54-31.35 197.54-35 201.54-35 201.54-34.5Q201.49-34.5 201.19-34.5 200.89-34.5 200.89-34.5L200.89-34.5Q199.59-34.5 198.66-33.58 197.74-32.65 197.69-31.35L197.69-31.35ZM228.08-22.2L231.03-31.35 245.83-0.25 237.38-0.25 228.08-22.2ZM218.03-3.3L221.63-3.3Q221.08-1.95 221.78-1.23 222.48-0.5 223.33-0.5L223.33-0.5 223.73-0.5 223.73 0 213.73 0 213.73-0.5Q213.73-0.5 213.93-0.5 214.13-0.5 214.13-0.5L214.13-0.5Q215.13-0.5 216.23-1.13 217.33-1.75 218.03-3.3L218.03-3.3ZM230.63-31.35L231.03-31.35 231.13-25.35 220.28-0.15 216.58-0.15 228.28-25.3Q228.38-25.6 228.73-26.38 229.08-27.15 229.48-28.13 229.88-29.1 230.23-29.98 230.58-30.85 230.63-31.35L230.63-31.35ZM222.63-9.8L235.38-9.8 235.38-7.85 222.63-7.85 222.63-9.8ZM236.13-3.3L236.13-3.3 244.38-3.3Q245.13-1.75 246.23-1.13 247.33-0.5 248.33-0.5L248.33-0.5Q248.33-0.5 248.53-0.5 248.73-0.5 248.73-0.5L248.73-0.5 248.73 0 234.03 0 234.03-0.5 234.43-0.5Q235.28-0.5 235.98-1.23 236.68-1.95 236.13-3.3ZM252.38-25.15L251.83-30.7 281.18-4.9 281.68 0.65 252.38-25.15ZM251.88-3.05L252.03-3.05 252.03 0 248.33 0 248.33-0.5Q248.33-0.5 248.73-0.5 249.13-0.5 249.13-0.5L249.13-0.5Q250.28-0.5 251.08-1.23 251.88-1.95 251.88-3.05L251.88-3.05ZM258.63-3.05L258.73-3.05Q258.78-1.95 259.58-1.23 260.38-0.5 261.48-0.5L261.48-0.5Q261.48-0.5 261.88-0.5 262.28-0.5 262.28-0.5L262.28-0.5 262.28 0 258.63 0 258.63-3.05ZM251.38-30.7L251.83-30.7 258.73-23.2 258.73 0 251.88 0 251.88-25Q251.88-27.55 251.63-29.13 251.38-30.7 251.38-30.7L251.38-30.7ZM274.78-30L281.63-30 281.63-5.2Q281.63-3.45 281.76-2.13 281.88-0.8 282.01-0.08 282.13 0.65 282.13 0.65L282.13 0.65 281.68 0.65 274.78-7.3 274.78-30ZM281.63-26.95L281.48-26.95 281.48-30 285.23-30 285.23-29.5Q285.23-29.5 284.81-29.5 284.38-29.5 284.38-29.5L284.38-29.5Q283.28-29.5 282.46-28.78 281.63-28.05 281.63-26.95L281.63-26.95ZM274.88-26.95L274.78-26.95Q274.73-28.05 273.96-28.78 273.18-29.5 272.03-29.5L272.03-29.5Q272.03-29.5 271.61-29.5 271.18-29.5 271.18-29.5L271.18-29.5 271.18-30 274.88-30 274.88-26.95ZM293.08-30L304.78-30Q310.13-30 313.98-28.23 317.83-26.45 319.88-23.08 321.93-19.7 321.93-15L321.93-15Q321.93-10.3 319.88-6.95 317.83-3.6 313.98-1.8 310.13 0 304.78 0L304.78 0 293.68 0 293.58-2Q297.38-2 299.7-2 302.03-2 303.1-2 304.18-2 304.18-2L304.18-2Q308.88-2 311.6-5.45 314.33-8.9 314.33-15L314.33-15Q314.33-21.1 311.6-24.58 308.88-28.05 304.18-28.05L304.18-28.05Q304.18-28.05 303.08-28.05 301.98-28.05 299.53-28.05 297.08-28.05 293.08-28.05L293.08-28.05 293.08-30ZM291.33-30L298.53-30 298.53 0 291.33 0 291.33-30ZM291.33-3.2L291.48-3.2 291.48 0 287.88 0 287.88-0.5Q287.88-0.5 288.18-0.5 288.48-0.5 288.53-0.5L288.53-0.5Q289.68-0.5 290.5-1.3 291.33-2.1 291.33-3.2L291.33-3.2ZM291.43-30L291.43-26.85 291.33-26.85Q291.28-28 290.45-28.75 289.63-29.5 288.48-29.5L288.48-29.5Q288.48-29.5 288.18-29.5 287.88-29.5 287.88-29.5L287.88-29.5 287.88-30 291.43-30Z" opacity="1" transform="matrix(1,0,0,1,0,0)" fill="#096a2e" class="wordmark-text-0" data-fill-palette-color="primary" id="text-0"></path></svg></g></svg></g><g transform="matrix(1,0,0,1,0,58.66171436266782)"><svg viewBox="0 0 395.52 19.36402577416328" height="19.36402577416328" width="395.52"><g transform="matrix(1,0,0,1,0,0)"><svg width="395.52" viewBox="2.75 -40.6 1073.36 52.55" height="19.36402577416328" data-palette-color="#096a2e"><path d="M6.95-20L6.95-20Q6.95-18.4 8-17.5 9.05-16.6 10.7-16.03 12.35-15.45 14.2-14.9 16.05-14.35 17.7-13.55 19.35-12.75 20.4-11.35 21.45-9.95 21.45-7.65L21.45-7.65Q21.45-5 20-3.2 18.55-1.4 16.07-0.48 13.6 0.45 10.55 0.45L10.55 0.45Q8.7 0.45 6.75 0.15 4.8-0.15 2.75-0.7L2.75-0.7 3.1-7.4 5.65-7.4 6.15-2.5 5.7-3.05Q6.85-2.75 8.2-2.55 9.55-2.35 10.7-2.35L10.7-2.35Q12.5-2.35 14.03-2.88 15.55-3.4 16.5-4.42 17.45-5.45 17.45-7L17.45-7Q17.45-8.65 16.43-9.6 15.4-10.55 13.75-11.15 12.1-11.75 10.28-12.28 8.45-12.8 6.8-13.63 5.15-14.45 4.1-15.8 3.05-17.15 3.05-19.5L3.05-19.5Q3.05-22.05 4.38-23.68 5.7-25.3 7.88-26.08 10.05-26.85 12.55-26.85L12.55-26.85Q14.25-26.85 16.3-26.5 18.35-26.15 20.5-25.45L20.5-25.45 20.25-19.8 17.7-19.8 16.95-23.95 17.55-23.25Q14.95-24 12.65-24L12.65-24Q10.2-24 8.58-22.98 6.95-21.95 6.95-20ZM47.64 0.45L47.64 0.45Q44.44 0.45 41.86-1.13 39.29-2.7 37.81-5.7 36.34-8.7 36.34-12.9L36.34-12.9Q36.34-16.55 37.36-19.18 38.39-21.8 40.14-23.5 41.89-25.2 44.16-26.03 46.44-26.85 48.89-26.85L48.89-26.85Q50.89-26.85 53.16-26.3 55.44-25.75 57.14-24.8L57.14-24.8 56.94-18.55 54.24-18.55 53.59-23.25 53.99-22.8Q52.74-23.4 51.34-23.65 49.94-23.9 48.84-23.9L48.84-23.9Q46.24-23.9 44.36-22.58 42.49-21.25 41.49-18.85 40.49-16.45 40.49-13.15L40.49-13.15Q40.49-9.75 41.54-7.4 42.59-5.05 44.41-3.85 46.24-2.65 48.54-2.65L48.54-2.65Q50.34-2.65 52.34-3.4 54.34-4.15 56.49-5.65L56.49-5.65 57.89-3.45Q55.29-1.45 52.69-0.5 50.09 0.45 47.64 0.45ZM82.72 0L71.02 0 71.02-2.15 75.57-3.15 74.97-2.4 74.97-35.9 75.57-35.1 71.02-36.1 71.02-38.25 78.97-38.6 78.97-21.7 78.07-21.9Q80.52-24.45 83.25-25.65 85.97-26.85 88.42-26.85L88.42-26.85Q90.62-26.85 92.37-25.95 94.12-25.05 95.1-23.23 96.07-21.4 96.07-18.6L96.07-18.6 96.07-2.4 95.57-3.1 99.97-2.15 99.97 0 88.32 0 88.32-2.15 92.62-3.1 92.07-2.35 92.07-17.7Q92.12-20.8 90.67-22.25 89.22-23.7 86.87-23.7L86.87-23.7Q85.07-23.7 82.87-22.7 80.67-21.7 78.62-19.55L78.62-19.55 78.97-20.4 78.97-2.35 78.47-3.05 82.72-2.15 82.72 0ZM127.06-24.1L127.06-26.25 137.51-26.6 137.51-24.4 134.11-23.4 134.81-24.15 126.11 0.1 121.41 0.1 113.46-24.05 114.16-23.4 110.71-24.1 110.71-26.25 121.71-26.6 121.71-24.4 117.16-23.55 117.56-24.15 124.26-2.45 123.86-2.45 131.11-24 131.41-23.55 127.06-24.1ZM169.89-19.4L169.89-2.25 169.24-3.15 173.84-2.25 173.84-0.05 166.84 0.25 166.24-4.55 166.59-4.4Q164.39-2 161.84-0.78 159.29 0.45 156.89 0.45L156.89 0.45Q153.99 0.45 151.99-1.4 149.99-3.25 149.99-7L149.99-7Q149.99-9.95 151.24-11.53 152.49-13.1 154.69-13.75 156.89-14.4 159.79-14.4L159.79-14.4 166.34-14.4 165.89-13.9 165.89-18.7Q165.89-21.45 164.44-22.63 162.99-23.8 160.44-23.8L160.44-23.8Q159.09-23.8 157.57-23.53 156.04-23.25 154.34-22.65L154.34-22.65 154.94-23.3 154.44-18.75 151.79-18.75 151.39-24.95Q154.24-25.9 156.74-26.38 159.24-26.85 161.34-26.85L161.34-26.85Q165.34-26.85 167.62-25.08 169.89-23.3 169.89-19.4L169.89-19.4ZM154.04-7.35L154.04-7.35Q154.04-4.9 155.22-3.75 156.39-2.6 158.19-2.6L158.19-2.6Q159.94-2.6 162.07-3.68 164.19-4.75 166.19-6.6L166.19-6.6 165.89-5.55 165.89-12.25 166.34-11.8 160.39-11.8Q156.84-11.8 155.44-10.73 154.04-9.65 154.04-7.35ZM167.79-37.15L157.89-31 156.44-33.05 165.54-40.2 167.79-37.15ZM194.13-38.6L194.13-2.55 193.68-3.1 198.03-2.15 198.03 0 186.18 0 186.18-2.15 190.53-3.1 190.13-2.55 190.13-35.65 190.53-35.2 186.18-36.1 186.18-38.25 194.13-38.6ZM223.16 0.45L223.16 0.45Q219.81 0.45 217.24-1.07 214.66-2.6 213.21-5.55 211.76-8.5 211.76-12.75L211.76-12.75Q211.76-17.1 213.26-20.25 214.76-23.4 217.51-25.13 220.26-26.85 223.96-26.85L223.96-26.85Q227.46-26.85 229.74-25.38 232.01-23.9 233.14-21.3 234.26-18.7 234.26-15.35L234.26-15.35Q234.26-14.8 234.21-14.25 234.16-13.7 234.06-12.9L234.06-12.9 214.81-12.9 214.81-15.75 230.56-15.75 230.11-15.45Q230.16-17.7 229.56-19.6 228.96-21.5 227.51-22.65 226.06-23.8 223.66-23.8L223.66-23.8Q221.11-23.8 219.36-22.45 217.61-21.1 216.76-18.75 215.91-16.4 215.91-13.3L215.91-13.3Q215.91-10 216.86-7.63 217.81-5.25 219.64-3.95 221.46-2.65 224.11-2.65L224.11-2.65Q225.96-2.65 228.16-3.38 230.36-4.1 232.71-5.6L232.71-5.6 234.16-3.35Q231.36-1.45 228.56-0.5 225.76 0.45 223.16 0.45ZM260.4 0L248.75 0 248.75-2.15 253.25-3.15 252.65-2.4 252.65-23.9 253.25-23.15 248.75-24.1 248.75-26.25 255.75-26.6 256.3-21.7 255.75-21.9Q258.25-24.45 260.98-25.65 263.7-26.85 266.15-26.85L266.15-26.85Q269.45-26.85 271.63-24.83 273.8-22.8 273.75-18.55L273.75-18.55 273.75-2.4 273.25-3.1 277.65-2.15 277.65 0 266 0 266-2.15 270.35-3.1 269.75-2.35 269.75-17.7Q269.75-20.8 268.35-22.25 266.95-23.7 264.6-23.7L264.6-23.7Q262.75-23.7 260.58-22.7 258.4-21.7 256.3-19.6L256.3-19.6 256.65-20.4 256.65-2.35 256.15-3.05 260.4-2.15 260.4 0ZM298.44-26.55L298.44-2.55 297.99-3.1 302.34-2.15 302.34 0 290.54 0 290.54-2.15 294.89-3.1 294.44-2.55 294.44-23.65 294.84-23.2 290.54-24.1 290.54-26.25 298.44-26.55ZM303.14-37.15L293.24-31 291.79-33.05 300.89-40.2 303.14-37.15ZM347.66 11.5L335.16 11.5 335.16 9.35 339.71 8.3 339.06 9.05 339.06-23.8 339.66-23.15 335.16-24.1 335.16-26.25 342.16-26.6 342.66-22.25 342.21-22.55Q344.51-24.7 346.81-25.78 349.11-26.85 351.36-26.85L351.36-26.85Q354.16-26.85 356.38-25.3 358.61-23.75 359.91-20.83 361.21-17.9 361.21-13.65L361.21-13.65Q361.21-9.05 359.63-5.9 358.06-2.75 355.21-1.13 352.36 0.5 348.51 0.5L348.51 0.5Q347.11 0.5 345.61 0.25 344.11 0 342.46-0.4L342.46-0.4 343.06-0.95 343.06 9.05 342.51 8.35 347.66 9.35 347.66 11.5ZM348.06-2.5L348.06-2.5Q352.46-2.5 354.76-5.35 357.06-8.2 357.06-13.25L357.06-13.25Q357.06-16.55 356.13-18.9 355.21-21.25 353.61-22.53 352.01-23.8 349.96-23.8L349.96-23.8Q348.21-23.8 346.33-22.88 344.46-21.95 342.56-20.05L342.56-20.05 343.06-21.3 343.06-2.55 342.51-3.45Q345.56-2.5 348.06-2.5ZM386.09 0.45L386.09 0.45Q382.79 0.45 380.64-1.6 378.49-3.65 378.49-7.9L378.49-7.9 378.49-23.85 378.99-23.15 374.54-24.1 374.54-26.25 382.49-26.55 382.49-8.6Q382.49-5.6 383.89-4.15 385.29-2.7 387.64-2.7L387.64-2.7Q389.49-2.7 391.64-3.7 393.79-4.7 395.89-6.8L395.89-6.8 395.59-5.9 395.59-23.95 396.09-23.15 391.64-24.1 391.64-26.25 399.59-26.6 399.59-2.45 398.99-3.1 403.49-2.25 403.49-0.05 396.49 0.25 395.89-4.7 396.44-4.5Q393.99-1.95 391.27-0.75 388.54 0.45 386.09 0.45ZM388.64-30.95L388.64-30.95Q387.14-30.95 385.94-31.53 384.74-32.1 384.07-33.18 383.39-34.25 383.39-35.7L383.39-35.7Q383.39-37.15 384.07-38.25 384.74-39.35 385.97-39.98 387.19-40.6 388.74-40.6L388.74-40.6Q390.29-40.6 391.44-40.03 392.59-39.45 393.29-38.38 393.99-37.3 393.99-35.85L393.99-35.85Q393.99-34.4 393.32-33.3 392.64-32.2 391.44-31.58 390.24-30.95 388.64-30.95ZM388.64-33L388.64-33Q389.94-33 390.64-33.8 391.34-34.6 391.34-35.8L391.34-35.8Q391.34-37 390.67-37.77 389.99-38.55 388.69-38.55L388.69-38.55Q387.39-38.55 386.72-37.75 386.04-36.95 386.04-35.75L386.04-35.75Q386.04-34.55 386.72-33.77 387.39-33 388.64-33ZM415.33 11.95L415.33 11.95Q414.73 11.95 414.13 11.9 413.53 11.85 412.83 11.75L412.83 11.75 413.18 8.8Q413.68 8.85 414.13 8.88 414.58 8.9 414.93 8.9L414.93 8.9Q417.68 8.9 418.83 7.55 419.98 6.2 419.98 2.95L419.98 2.95 419.98-23.8 420.53-23.15 416.08-24.1 416.08-26.25 423.98-26.55 423.98 1.65Q423.98 4.2 423.5 6.13 423.03 8.05 421.98 9.33 420.93 10.6 419.28 11.28 417.63 11.95 415.33 11.95ZM421.58-31.95L421.58-31.95Q420.43-31.95 419.68-32.7 418.93-33.45 418.93-34.75L418.93-34.75Q418.93-36.1 419.7-36.83 420.48-37.55 421.63-37.55L421.63-37.55Q422.83-37.55 423.58-36.85 424.33-36.15 424.33-34.75L424.33-34.75Q424.33-33.4 423.53-32.68 422.73-31.95 421.58-31.95ZM452.17 0.45L452.17 0.45Q448.97 0.45 446.39-1.13 443.82-2.7 442.34-5.7 440.87-8.7 440.87-12.9L440.87-12.9Q440.87-16.55 441.89-19.18 442.92-21.8 444.67-23.5 446.42-25.2 448.69-26.03 450.97-26.85 453.42-26.85L453.42-26.85Q455.42-26.85 457.69-26.3 459.97-25.75 461.67-24.8L461.67-24.8 461.47-18.55 458.77-18.55 458.12-23.25 458.52-22.8Q457.27-23.4 455.87-23.65 454.47-23.9 453.37-23.9L453.37-23.9Q450.77-23.9 448.89-22.58 447.02-21.25 446.02-18.85 445.02-16.45 445.02-13.15L445.02-13.15Q445.02-9.75 446.07-7.4 447.12-5.05 448.94-3.85 450.77-2.65 453.07-2.65L453.07-2.65Q454.87-2.65 456.87-3.4 458.87-4.15 461.02-5.65L461.02-5.65 462.42-3.45Q459.82-1.45 457.22-0.5 454.62 0.45 452.17 0.45ZM451.52-33.85L459.22-39.7 460.67-38.1 454.07-31.7 451.72-31.5 444.77-38.1 446.27-39.7 454.17-33.85 451.52-33.85ZM487.3 0L475.55 0 475.55-2.15 480.1-3.15 479.5-2.3 479.5-35.8 479.9-35.2 475.55-36.1 475.55-38.25 483.5-38.6 483.5-15.35 482.75-16 489.65-16 488.6-15.45 493.9-24.05 494.25-23.5 490.15-24.1 490.15-26.25 501.1-26.6 501.1-24.45 496.65-23.55 497.8-24.3 491.7-14.45 491.65-15.65 499.1-2.45 498.35-3.1 502.45-2.15 502.45 0 496.2 0 488.75-13.6 489.55-13.2 482.75-13.2 483.5-13.65 483.5-2.3 482.95-3.15 487.3-2.15 487.3 0ZM513.59 11.7L513.59 11.7 513.94 8.75Q514.54 8.85 515.06 8.9 515.59 8.95 516.04 8.95L516.04 8.95Q518.49 8.95 520.01 7.83 521.54 6.7 522.59 4.45 523.64 2.2 524.74-1.15L524.74-1.15 524.59 0.35 515.24-24 515.79-23.55 512.54-24.1 512.54-26.25 523.49-26.6 523.49-24.4 518.99-23.65 519.29-24.1 526.74-2.85 525.84-3.05 532.99-24 533.29-23.55 528.89-24.1 528.89-26.25 539.49-26.6 539.49-24.4 535.99-23.6 536.69-24.05 527.89 0.1Q526.99 2.6 526.01 4.75 525.04 6.9 523.79 8.53 522.54 10.15 520.74 11.05 518.94 11.95 516.39 11.95L516.39 11.95Q515.24 11.95 513.59 11.7ZM576.51-20L576.51-20Q576.51-18.4 577.56-17.5 578.61-16.6 580.26-16.03 581.91-15.45 583.76-14.9 585.61-14.35 587.26-13.55 588.91-12.75 589.96-11.35 591.01-9.95 591.01-7.65L591.01-7.65Q591.01-5 589.56-3.2 588.11-1.4 585.63-0.48 583.16 0.45 580.11 0.45L580.11 0.45Q578.26 0.45 576.31 0.15 574.36-0.15 572.31-0.7L572.31-0.7 572.66-7.4 575.21-7.4 575.71-2.5 575.26-3.05Q576.41-2.75 577.76-2.55 579.11-2.35 580.26-2.35L580.26-2.35Q582.06-2.35 583.58-2.88 585.11-3.4 586.06-4.42 587.01-5.45 587.01-7L587.01-7Q587.01-8.65 585.98-9.6 584.96-10.55 583.31-11.15 581.66-11.75 579.83-12.28 578.01-12.8 576.36-13.63 574.71-14.45 573.66-15.8 572.61-17.15 572.61-19.5L572.61-19.5Q572.61-22.05 573.93-23.68 575.26-25.3 577.43-26.08 579.61-26.85 582.11-26.85L582.11-26.85Q583.81-26.85 585.86-26.5 587.91-26.15 590.06-25.45L590.06-25.45 589.81-19.8 587.26-19.8 586.51-23.95 587.11-23.25Q584.51-24 582.21-24L582.21-24Q579.76-24 578.13-22.98 576.51-21.95 576.51-20ZM617.14 0L605.49 0 605.49-2.15 609.99-3.15 609.39-2.4 609.39-23.9 609.99-23.15 605.49-24.1 605.49-26.25 612.49-26.6 613.04-21.7 612.49-21.9Q614.99-24.45 617.72-25.65 620.44-26.85 622.89-26.85L622.89-26.85Q626.19-26.85 628.37-24.83 630.54-22.8 630.49-18.55L630.49-18.55 630.49-2.4 629.99-3.1 634.39-2.15 634.39 0 622.74 0 622.74-2.15 627.09-3.1 626.49-2.35 626.49-17.7Q626.49-20.8 625.09-22.25 623.69-23.7 621.34-23.7L621.34-23.7Q619.49-23.7 617.32-22.7 615.14-21.7 613.04-19.6L613.04-19.6 613.39-20.4 613.39-2.35 612.89-3.05 617.14-2.15 617.14 0ZM667.83-19.4L667.83-2.25 667.18-3.15 671.78-2.25 671.78-0.05 664.78 0.25 664.18-4.55 664.53-4.4Q662.33-2 659.78-0.78 657.23 0.45 654.83 0.45L654.83 0.45Q651.93 0.45 649.93-1.4 647.93-3.25 647.93-7L647.93-7Q647.93-9.95 649.18-11.53 650.43-13.1 652.63-13.75 654.83-14.4 657.73-14.4L657.73-14.4 664.28-14.4 663.83-13.9 663.83-18.7Q663.83-21.45 662.38-22.63 660.93-23.8 658.38-23.8L658.38-23.8Q657.03-23.8 655.51-23.53 653.98-23.25 652.28-22.65L652.28-22.65 652.88-23.3 652.38-18.75 649.73-18.75 649.33-24.95Q652.18-25.9 654.68-26.38 657.18-26.85 659.28-26.85L659.28-26.85Q663.28-26.85 665.56-25.08 667.83-23.3 667.83-19.4L667.83-19.4ZM651.98-7.35L651.98-7.35Q651.98-4.9 653.16-3.75 654.33-2.6 656.13-2.6L656.13-2.6Q657.88-2.6 660.01-3.68 662.13-4.75 664.13-6.6L664.13-6.6 663.83-5.55 663.83-12.25 664.28-11.8 658.33-11.8Q654.78-11.8 653.38-10.73 651.98-9.65 651.98-7.35ZM695.12 0.45L695.12 0.45Q692.37 0.45 690.12-1.07 687.87-2.6 686.57-5.58 685.27-8.55 685.27-12.8L685.27-12.8Q685.27-19.75 688.82-23.3 692.37-26.85 698.57-26.85L698.57-26.85Q699.87-26.85 701.29-26.65 702.72-26.45 704.22-26.05L704.22-26.05 703.42-25.6 703.42-35.65 703.87-35.1 699.27-36.1 699.27-38.25 707.42-38.6 707.42-2.45 706.82-3.15 711.32-2.25 711.32-0.05 704.32 0.25 703.72-4.05 704.22-3.85Q701.97-1.7 699.69-0.63 697.42 0.45 695.12 0.45ZM696.52-2.6L696.52-2.6Q698.27-2.6 700.14-3.53 702.02-4.45 703.92-6.3L703.92-6.3 703.42-4.95 703.42-23.9 703.97-22.9Q700.92-23.9 698.42-23.9L698.42-23.9Q694.02-23.9 691.72-21.05 689.42-18.2 689.42-13.15L689.42-13.15Q689.42-9.85 690.34-7.48 691.27-5.1 692.89-3.85 694.52-2.6 696.52-2.6ZM736.2 0L724.55 0 724.55-2.15 729.05-3.15 728.45-2.4 728.45-23.9 729.05-23.15 724.55-24.1 724.55-26.25 731.55-26.6 732.1-21.7 731.55-21.9Q734.05-24.45 736.78-25.65 739.5-26.85 741.95-26.85L741.95-26.85Q745.25-26.85 747.43-24.83 749.6-22.8 749.55-18.55L749.55-18.55 749.55-2.4 749.05-3.1 753.45-2.15 753.45 0 741.8 0 741.8-2.15 746.15-3.1 745.55-2.35 745.55-17.7Q745.55-20.8 744.15-22.25 742.75-23.7 740.4-23.7L740.4-23.7Q738.55-23.7 736.38-22.7 734.2-21.7 732.1-19.6L732.1-19.6 732.45-20.4 732.45-2.35 731.95-3.05 736.2-2.15 736.2 0ZM779.14-26.85L779.14-26.85Q784.64-26.85 787.76-23.4 790.89-19.95 790.89-13.65L790.89-13.65Q790.89-9.4 789.36-6.23 787.84-3.05 785.04-1.3 782.24 0.45 778.29 0.45L778.29 0.45Q772.89 0.45 769.84-2.93 766.79-6.3 766.79-12.65L766.79-12.65Q766.79-17.05 768.26-20.23 769.74-23.4 772.51-25.13 775.29-26.85 779.14-26.85ZM778.94-23.9L778.94-23.9Q775.09-23.9 773.04-21 770.99-18.1 770.99-12.85L770.99-12.85Q770.99-7.7 772.94-5.1 774.89-2.5 778.54-2.5L778.54-2.5Q781.19-2.5 783.01-3.83 784.84-5.15 785.76-7.6 786.69-10.05 786.69-13.45L786.69-13.45Q786.69-18.55 784.66-21.23 782.64-23.9 778.94-23.9ZM845.91-19.4L845.91-2.25 845.26-3.15 849.86-2.25 849.86-0.05 842.86 0.25 842.26-4.55 842.61-4.4Q840.41-2 837.86-0.78 835.31 0.45 832.91 0.45L832.91 0.45Q830.01 0.45 828.01-1.4 826.01-3.25 826.01-7L826.01-7Q826.01-9.95 827.26-11.53 828.51-13.1 830.71-13.75 832.91-14.4 835.81-14.4L835.81-14.4 842.36-14.4 841.91-13.9 841.91-18.7Q841.91-21.45 840.46-22.63 839.01-23.8 836.46-23.8L836.46-23.8Q835.11-23.8 833.58-23.53 832.06-23.25 830.36-22.65L830.36-22.65 830.96-23.3 830.46-18.75 827.81-18.75 827.41-24.95Q830.26-25.9 832.76-26.38 835.26-26.85 837.36-26.85L837.36-26.85Q841.36-26.85 843.63-25.08 845.91-23.3 845.91-19.4L845.91-19.4ZM830.06-7.35L830.06-7.35Q830.06-4.9 831.23-3.75 832.41-2.6 834.21-2.6L834.21-2.6Q835.96-2.6 838.08-3.68 840.21-4.75 842.21-6.6L842.21-6.6 841.91-5.55 841.91-12.25 842.36-11.8 836.41-11.8Q832.86-11.8 831.46-10.73 830.06-9.65 830.06-7.35ZM895.73 0L882.98 0 882.98-2.15 887.38-3.1 886.88-2.35 886.88-23.9 887.43-23.15 882.98-24.1 882.98-26.25 889.98-26.6 890.53-21.7 889.98-21.9Q892.23-24.25 894.38-25.55 896.53-26.85 899.08-26.85L899.08-26.85Q900.68-26.85 902.43-26.35L902.43-26.35 902.13-19.05 899.63-19.05 899.03-24.3 899.48-23.4Q899.13-23.5 898.73-23.55 898.33-23.6 897.93-23.6L897.93-23.6Q895.93-23.6 894.06-22.4 892.18-21.2 890.48-19.3L890.48-19.3 890.88-20.5 890.88-2.35 890.28-3.1 895.73-2.15 895.73 0ZM914.07 11.7L914.07 11.7 914.42 8.75Q915.02 8.85 915.54 8.9 916.07 8.95 916.52 8.95L916.52 8.95Q918.97 8.95 920.49 7.83 922.02 6.7 923.07 4.45 924.12 2.2 925.22-1.15L925.22-1.15 925.07 0.35 915.72-24 916.27-23.55 913.02-24.1 913.02-26.25 923.97-26.6 923.97-24.4 919.47-23.65 919.77-24.1 927.22-2.85 926.32-3.05 933.47-24 933.77-23.55 929.37-24.1 929.37-26.25 939.97-26.6 939.97-24.4 936.47-23.6 937.17-24.05 928.37 0.1Q927.47 2.6 926.49 4.75 925.52 6.9 924.27 8.53 923.02 10.15 921.22 11.05 919.42 11.95 916.87 11.95L916.87 11.95Q915.72 11.95 914.07 11.7ZM963.5 0.45L963.5 0.45Q960.3 0.45 957.73-1.13 955.15-2.7 953.68-5.7 952.2-8.7 952.2-12.9L952.2-12.9Q952.2-16.55 953.23-19.18 954.25-21.8 956-23.5 957.75-25.2 960.03-26.03 962.3-26.85 964.75-26.85L964.75-26.85Q966.75-26.85 969.03-26.3 971.3-25.75 973-24.8L973-24.8 972.8-18.55 970.1-18.55 969.45-23.25 969.85-22.8Q968.6-23.4 967.2-23.65 965.8-23.9 964.7-23.9L964.7-23.9Q962.1-23.9 960.23-22.58 958.35-21.25 957.35-18.85 956.35-16.45 956.35-13.15L956.35-13.15Q956.35-9.75 957.4-7.4 958.45-5.05 960.28-3.85 962.1-2.65 964.4-2.65L964.4-2.65Q966.2-2.65 968.2-3.4 970.2-4.15 972.35-5.65L972.35-5.65 973.75-3.45Q971.15-1.45 968.55-0.5 965.95 0.45 963.5 0.45ZM998.59 0L986.89 0 986.89-2.15 991.44-3.15 990.84-2.4 990.84-35.9 991.44-35.1 986.89-36.1 986.89-38.25 994.84-38.6 994.84-21.7 993.94-21.9Q996.39-24.45 999.11-25.65 1001.84-26.85 1004.29-26.85L1004.29-26.85Q1006.49-26.85 1008.24-25.95 1009.99-25.05 1010.96-23.23 1011.94-21.4 1011.94-18.6L1011.94-18.6 1011.94-2.4 1011.44-3.1 1015.84-2.15 1015.84 0 1004.19 0 1004.19-2.15 1008.49-3.1 1007.94-2.35 1007.94-17.7Q1007.99-20.8 1006.54-22.25 1005.09-23.7 1002.74-23.7L1002.74-23.7Q1000.94-23.7 998.74-22.7 996.54-21.7 994.49-19.55L994.49-19.55 994.84-20.4 994.84-2.35 994.34-3.05 998.59-2.15 998.59 0ZM1035.97-38.6L1035.97-2.55 1035.52-3.1 1039.87-2.15 1039.87 0 1028.02 0 1028.02-2.15 1032.37-3.1 1031.97-2.55 1031.97-35.65 1032.37-35.2 1028.02-36.1 1028.02-38.25 1035.97-38.6ZM1065.01 0.45L1065.01 0.45Q1061.66 0.45 1059.09-1.07 1056.51-2.6 1055.06-5.55 1053.61-8.5 1053.61-12.75L1053.61-12.75Q1053.61-17.1 1055.11-20.25 1056.61-23.4 1059.36-25.13 1062.11-26.85 1065.81-26.85L1065.81-26.85Q1069.31-26.85 1071.59-25.38 1073.86-23.9 1074.99-21.3 1076.11-18.7 1076.11-15.35L1076.11-15.35Q1076.11-14.8 1076.06-14.25 1076.01-13.7 1075.91-12.9L1075.91-12.9 1056.66-12.9 1056.66-15.75 1072.41-15.75 1071.96-15.45Q1072.01-17.7 1071.41-19.6 1070.81-21.5 1069.36-22.65 1067.91-23.8 1065.51-23.8L1065.51-23.8Q1062.96-23.8 1061.21-22.45 1059.46-21.1 1058.61-18.75 1057.76-16.4 1057.76-13.3L1057.76-13.3Q1057.76-10 1058.71-7.63 1059.66-5.25 1061.49-3.95 1063.31-2.65 1065.96-2.65L1065.96-2.65Q1067.81-2.65 1070.01-3.38 1072.21-4.1 1074.56-5.6L1074.56-5.6 1076.01-3.35Q1073.21-1.45 1070.41-0.5 1067.61 0.45 1065.01 0.45Z" opacity="1" transform="matrix(1,0,0,1,0,0)" fill="#096a2e" class="slogan-text-1" data-fill-palette-color="secondary" id="text-1"></path></svg></g></svg></g></svg></g></svg></g><g></g></svg></g><defs></defs></svg><rect width="395.52" height="77.63755237495631" fill="none" stroke="none" visibility="hidden"></rect></g></svg></g></svg>