<svg xmlns="http://www.w3.org/2000/svg" version="1.1" xmlns:xlink="http://www.w3.org/1999/xlink" xmlns:svgjs="http://svgjs.dev/svgjs" width="1500" height="170" viewBox="0 0 1500 170"><g transform="matrix(1,0,0,1,-0.9090909090909918,0.06161192784904301)"><svg viewBox="0 0 396 45" data-background-color="#ffffff" preserveAspectRatio="xMidYMid meet" height="170" width="1500" xmlns="http://www.w3.org/2000/svg" xmlns:xlink="http://www.w3.org/1999/xlink"><g id="tight-bounds" transform="matrix(1,0,0,1,0.2400000000000091,-0.016309039724745844)"><svg viewBox="0 0 395.52 45.03261807944949" height="45.03261807944949" width="395.52"><g><svg viewBox="0 0 395.52 45.03261807944949" height="45.03261807944949" width="395.52"><g><svg viewBox="0 0 395.52 45.03261807944949" height="45.03261807944949" width="395.52"><g id="textblocktransform"><svg viewBox="0 0 395.52 45.03261807944949" height="45.03261807944949" width="395.52" id="textblock"><g><svg viewBox="0 0 395.52 45.03261807944949" height="45.03261807944949" width="395.52"><g transform="matrix(1,0,0,1,0,0)"><svg width="395.52" viewBox="2.25 -35.7 319.68 36.400000000000006" height="45.03261807944949" data-palette-color="#096a2e"><path d="M35.7-14.6L36.1-14.6 36.55-6Q35.45-4.15 33.6-2.65 31.75-1.15 29-0.23 26.25 0.7 22.5 0.7L22.5 0.7Q16.4 0.65 11.83-1.53 7.25-3.7 4.75-7.75 2.25-11.8 2.25-17.55L2.25-17.55Q2.25-23.15 4.7-27.23 7.15-31.3 11.73-33.5 16.3-35.7 22.65-35.7L22.65-35.7Q26.65-35.7 29.83-34.9 33-34.1 35.1-32.95L35.1-32.95 35.2-24.4 34.75-24.4Q33.4-29.35 30.35-31.48 27.3-33.6 23.2-33.6L23.2-33.6Q19.2-33.6 16.35-31.65 13.5-29.7 11.95-26.15 10.4-22.6 10.4-17.65L10.4-17.65Q10.4-12.7 11.88-9.1 13.35-5.5 16.07-3.5 18.8-1.5 22.5-1.4L22.5-1.4Q26.35-1.4 29-2.65 31.65-3.9 33.27-6.8 34.9-9.7 35.7-14.6L35.7-14.6ZM51.05-30L51.05-30 56.4-30Q58.5-30 60.45-29.58 62.4-29.15 63.95-28.23 65.5-27.3 66.42-25.73 67.35-24.15 67.35-21.8L67.35-21.8Q67.35-20.05 66.62-18.32 65.9-16.6 64.37-15.35 62.85-14.1 60.4-13.7L60.4-13.7Q61.85-13.25 63.17-11.95 64.5-10.65 65.2-9.5L65.2-9.5Q65.45-9.1 65.95-8.22 66.45-7.35 67.22-6.23 68-5.1 68.85-3.9L68.85-3.9Q69.85-2.55 70.6-1.83 71.35-1.1 72.15-0.8 72.95-0.5 74-0.5L74-0.5 74 0 69.8 0Q67.1 0 65.22-0.4 63.35-0.8 62-1.88 60.65-2.95 59.45-4.8L59.45-4.8Q59-5.45 58.5-6.38 58-7.3 57.5-8.25 57-9.2 56.62-10.1 56.25-11 56.1-11.6L56.1-11.6Q55.45-13.2 54.62-13.93 53.8-14.65 53.1-14.65L53.1-14.65 53.1-15.1Q53.1-15.1 53.45-15.1 53.8-15.1 54.35-15.1L54.35-15.1Q55.4-15.1 56.42-15.48 57.45-15.85 58.3-16.93 59.15-18 59.55-20.1L59.55-20.1Q59.65-20.4 59.72-20.95 59.8-21.5 59.75-22.2L59.75-22.2Q59.65-24.05 59.07-25.15 58.5-26.25 57.65-26.85 56.8-27.45 55.92-27.68 55.05-27.9 54.4-27.9L54.4-27.9Q53.45-27.95 52.67-27.93 51.9-27.9 51.5-27.95L51.5-27.95Q51.45-27.95 51.35-28.48 51.25-29 51.15-29.5 51.05-30 51.05-30ZM44.3-30L51.55-30 51.55 0 44.3 0 44.3-30ZM44.35-3.15L44.45-3.15 44.65 0 41.05 0 41.05-0.5Q41.1-0.5 41.32-0.5 41.55-0.5 41.65-0.5L41.65-0.5Q42.75-0.5 43.52-1.28 44.3-2.05 44.35-3.15L44.35-3.15ZM44.65-30L44.45-26.9 44.35-26.9Q44.3-28.05 43.52-28.78 42.75-29.5 41.7-29.5L41.7-29.5Q41.55-29.5 41.32-29.5 41.1-29.5 41.05-29.5L41.05-29.5 41.05-30 44.65-30ZM51.2 0L51.45-3.15 51.55-3.15Q51.55-1.9 52.42-1.2 53.3-0.5 54.25-0.5L54.25-0.5Q54.25-0.5 54.47-0.5 54.7-0.5 54.8-0.5L54.8-0.5 54.8 0 51.2 0ZM76.95-30L84.15-30 84.15 0 76.95 0 76.95-30ZM84.05-2L95.85-2 97 0 84.05 0 84.05-2ZM84.05-15.85L94.15-15.85 94.15-13.85 84.05-13.85 84.05-15.85ZM84.05-30L96.4-30 96.4-28 84.05-28 84.05-30ZM98.6-9.2L99.05-9.2 97.15 0 88.5 0 90.05-2Q92.2-2 93.87-2.88 95.55-3.75 96.75-5.38 97.95-7 98.6-9.2L98.6-9.2ZM89.85-13.95L94.15-13.95 94.15-9.55 93.65-9.55 93.65-9.95Q93.65-11.6 92.62-12.73 91.6-13.85 89.85-13.85L89.85-13.85 89.85-13.95ZM93.65-20.15L94.15-20.15 94.15-15.75 89.85-15.75 89.85-15.85Q91.6-15.9 92.62-17.03 93.65-18.15 93.65-19.8L93.65-19.8 93.65-20.15ZM91.35-28.1L96.4-28.1 96.4-22.8 95.9-22.8 95.9-23.25Q95.9-25.45 94.72-26.7 93.55-27.95 91.35-28L91.35-28 91.35-28.1ZM96.4-30.75L96.4-30.75 96.4-29.55 91.15-30Q92.6-30 94.2-30.28 95.8-30.55 96.4-30.75ZM76.95-3.15L77.1-3.15 77.3 0 73.6 0 73.6-0.5Q73.6-0.5 73.9-0.5 74.2-0.5 74.25-0.5L74.25-0.5Q75.35-0.5 76.15-1.28 76.95-2.05 76.95-3.15L76.95-3.15ZM77.3-30L77.1-26.85 76.95-26.85Q76.95-28 76.15-28.75 75.35-29.5 74.25-29.5L74.25-29.5Q74.2-29.5 73.9-29.5 73.6-29.5 73.6-29.5L73.6-29.5 73.6-30 77.3-30ZM106.74-30L118.44-30Q123.79-30 127.64-28.23 131.49-26.45 133.54-23.08 135.59-19.7 135.59-15L135.59-15Q135.59-10.3 133.54-6.95 131.49-3.6 127.64-1.8 123.79 0 118.44 0L118.44 0 107.34 0 107.24-2Q111.04-2 113.37-2 115.69-2 116.77-2 117.84-2 117.84-2L117.84-2Q122.54-2 125.27-5.45 127.99-8.9 127.99-15L127.99-15Q127.99-21.1 125.27-24.58 122.54-28.05 117.84-28.05L117.84-28.05Q117.84-28.05 116.74-28.05 115.64-28.05 113.19-28.05 110.74-28.05 106.74-28.05L106.74-28.05 106.74-30ZM104.99-30L112.19-30 112.19 0 104.99 0 104.99-30ZM104.99-3.2L105.14-3.2 105.14 0 101.54 0 101.54-0.5Q101.54-0.5 101.84-0.5 102.14-0.5 102.19-0.5L102.19-0.5Q103.34-0.5 104.17-1.3 104.99-2.1 104.99-3.2L104.99-3.2ZM105.09-30L105.09-26.85 104.99-26.85Q104.94-28 104.12-28.75 103.29-29.5 102.14-29.5L102.14-29.5Q102.14-29.5 101.84-29.5 101.54-29.5 101.54-29.5L101.54-29.5 101.54-30 105.09-30ZM141.89-30L149.09-30 149.09 0 141.89 0 141.89-30ZM141.89-3.15L142.04-3.15 142.04 0 138.39 0 138.39-0.5Q138.39-0.5 138.69-0.5 138.99-0.5 139.04-0.5L139.04-0.5Q140.19-0.5 141.04-1.28 141.89-2.05 141.89-3.15L141.89-3.15ZM148.99 0L148.99-3.15 149.09-3.15Q149.14-2.05 149.97-1.28 150.79-0.5 151.99-0.5L151.99-0.5Q151.99-0.5 152.27-0.5 152.54-0.5 152.59-0.5L152.59-0.5 152.59 0 148.99 0ZM149.09-26.85L148.99-26.85 148.99-30 152.59-30 152.54-29.5Q152.54-29.5 152.29-29.5 152.04-29.5 151.99-29.5L151.99-29.5Q150.79-29.5 149.97-28.75 149.14-28 149.09-26.85L149.09-26.85ZM142.04-30L142.04-26.85 141.89-26.85Q141.89-28 141.04-28.75 140.19-29.5 138.99-29.5L138.99-29.5Q138.99-29.5 138.69-29.5 138.39-29.5 138.39-29.5L138.39-29.5 138.39-30 142.04-30ZM165.64-29.85L172.89-29.85 172.89 0 165.64 0 165.64-29.85ZM154.79-30.05L183.74-30.05 183.74-28.05 154.79-28.05 154.79-30.05ZM178.69-28.2L183.74-28.2 183.74-22.9 183.24-22.9 183.24-23.35Q183.29-25.5 182.06-26.75 180.84-28 178.69-28.05L178.69-28.05 178.69-28.2ZM183.74-30.8L183.74-30.8 183.74-29.55 178.49-30.05Q179.44-30.05 180.54-30.18 181.64-30.3 182.54-30.48 183.44-30.65 183.74-30.8ZM165.64-3.15L165.74-3.15 165.74 0 162.39 0 162.39-0.5Q162.39-0.5 162.66-0.5 162.94-0.5 162.94-0.5L162.94-0.5Q164.04-0.5 164.81-1.28 165.59-2.05 165.64-3.15L165.64-3.15ZM172.74 0L172.74-3.15 172.89-3.15Q172.89-2.05 173.69-1.28 174.49-0.5 175.64-0.5L175.64-0.5Q175.64-0.5 175.91-0.5 176.19-0.5 176.19-0.5L176.19-0.5 176.19 0 172.74 0ZM154.79-28.2L159.89-28.2 159.89-28.05Q157.69-28 156.51-26.75 155.34-25.5 155.34-23.35L155.34-23.35 155.34-22.9 154.79-22.9 154.79-28.2ZM154.79-29.55L154.79-30.8Q155.24-30.7 156.11-30.5 156.99-30.3 158.06-30.18 159.14-30.05 160.04-30.05L160.04-30.05 154.79-29.55ZM190.19-35L197.69-35 197.69 0 190.19 0 190.19-35ZM197.54-2.15L210.89-2.15 212.09 0 197.54 0 197.54-2.15ZM214.04-10.2L214.54-10.2 212.24 0 202.44 0 204.24-2.15Q206.74-2.15 208.64-3.13 210.54-4.1 211.89-5.93 213.24-7.75 214.04-10.2L214.04-10.2ZM190.19-3.65L190.34-3.65 190.34 0 186.34 0 186.34-0.5Q186.34-0.5 186.66-0.5 186.99-0.5 186.99-0.5L186.99-0.5Q188.29-0.5 189.21-1.43 190.14-2.35 190.19-3.65L190.19-3.65ZM190.34-35L190.34-31.35 190.19-31.35Q190.14-32.65 189.21-33.58 188.29-34.5 186.99-34.5L186.99-34.5Q186.99-34.5 186.66-34.5 186.34-34.5 186.34-34.5L186.34-34.5 186.34-35 190.34-35ZM197.69-31.35L197.54-31.35 197.54-35 201.54-35 201.54-34.5Q201.49-34.5 201.19-34.5 200.89-34.5 200.89-34.5L200.89-34.5Q199.59-34.5 198.66-33.58 197.74-32.65 197.69-31.35L197.69-31.35ZM228.08-22.2L231.03-31.35 245.83-0.25 237.38-0.25 228.08-22.2ZM218.03-3.3L221.63-3.3Q221.08-1.95 221.78-1.23 222.48-0.5 223.33-0.5L223.33-0.5 223.73-0.5 223.73 0 213.73 0 213.73-0.5Q213.73-0.5 213.93-0.5 214.13-0.5 214.13-0.5L214.13-0.5Q215.13-0.5 216.23-1.13 217.33-1.75 218.03-3.3L218.03-3.3ZM230.63-31.35L231.03-31.35 231.13-25.35 220.28-0.15 216.58-0.15 228.28-25.3Q228.38-25.6 228.73-26.38 229.08-27.15 229.48-28.13 229.88-29.1 230.23-29.98 230.58-30.85 230.63-31.35L230.63-31.35ZM222.63-9.8L235.38-9.8 235.38-7.85 222.63-7.85 222.63-9.8ZM236.13-3.3L236.13-3.3 244.38-3.3Q245.13-1.75 246.23-1.13 247.33-0.5 248.33-0.5L248.33-0.5Q248.33-0.5 248.53-0.5 248.73-0.5 248.73-0.5L248.73-0.5 248.73 0 234.03 0 234.03-0.5 234.43-0.5Q235.28-0.5 235.98-1.23 236.68-1.95 236.13-3.3ZM252.38-25.15L251.83-30.7 281.18-4.9 281.68 0.65 252.38-25.15ZM251.88-3.05L252.03-3.05 252.03 0 248.33 0 248.33-0.5Q248.33-0.5 248.73-0.5 249.13-0.5 249.13-0.5L249.13-0.5Q250.28-0.5 251.08-1.23 251.88-1.95 251.88-3.05L251.88-3.05ZM258.63-3.05L258.73-3.05Q258.78-1.95 259.58-1.23 260.38-0.5 261.48-0.5L261.48-0.5Q261.48-0.5 261.88-0.5 262.28-0.5 262.28-0.5L262.28-0.5 262.28 0 258.63 0 258.63-3.05ZM251.38-30.7L251.83-30.7 258.73-23.2 258.73 0 251.88 0 251.88-25Q251.88-27.55 251.63-29.13 251.38-30.7 251.38-30.7L251.38-30.7ZM274.78-30L281.63-30 281.63-5.2Q281.63-3.45 281.76-2.13 281.88-0.8 282.01-0.08 282.13 0.65 282.13 0.65L282.13 0.65 281.68 0.65 274.78-7.3 274.78-30ZM281.63-26.95L281.48-26.95 281.48-30 285.23-30 285.23-29.5Q285.23-29.5 284.81-29.5 284.38-29.5 284.38-29.5L284.38-29.5Q283.28-29.5 282.46-28.78 281.63-28.05 281.63-26.95L281.63-26.95ZM274.88-26.95L274.78-26.95Q274.73-28.05 273.96-28.78 273.18-29.5 272.03-29.5L272.03-29.5Q272.03-29.5 271.61-29.5 271.18-29.5 271.18-29.5L271.18-29.5 271.18-30 274.88-30 274.88-26.95ZM293.08-30L304.78-30Q310.13-30 313.98-28.23 317.83-26.45 319.88-23.08 321.93-19.7 321.93-15L321.93-15Q321.93-10.3 319.88-6.95 317.83-3.6 313.98-1.8 310.13 0 304.78 0L304.78 0 293.68 0 293.58-2Q297.38-2 299.7-2 302.03-2 303.1-2 304.18-2 304.18-2L304.18-2Q308.88-2 311.6-5.45 314.33-8.9 314.33-15L314.33-15Q314.33-21.1 311.6-24.58 308.88-28.05 304.18-28.05L304.18-28.05Q304.18-28.05 303.08-28.05 301.98-28.05 299.53-28.05 297.08-28.05 293.08-28.05L293.08-28.05 293.08-30ZM291.33-30L298.53-30 298.53 0 291.33 0 291.33-30ZM291.33-3.2L291.48-3.2 291.48 0 287.88 0 287.88-0.5Q287.88-0.5 288.18-0.5 288.48-0.5 288.53-0.5L288.53-0.5Q289.68-0.5 290.5-1.3 291.33-2.1 291.33-3.2L291.33-3.2ZM291.43-30L291.43-26.85 291.33-26.85Q291.28-28 290.45-28.75 289.63-29.5 288.48-29.5L288.48-29.5Q288.48-29.5 288.18-29.5 287.88-29.5 287.88-29.5L287.88-29.5 287.88-30 291.43-30Z" opacity="1" transform="matrix(1,0,0,1,0,0)" fill="#096a2e" class="wordmark-text-0" data-fill-palette-color="primary" id="text-0"></path></svg></g></svg></g></svg></g></svg></g><g></g></svg></g><defs></defs></svg><rect width="395.52" height="45.03261807944949" fill="none" stroke="none" visibility="hidden"></rect></g></svg></g></svg>