<svg xmlns="http://www.w3.org/2000/svg" version="1.1" xmlns:xlink="http://www.w3.org/1999/xlink" xmlns:svgjs="http://svgjs.dev/svgjs" width="1500" height="1500" viewBox="0 0 1500 1500"><rect width="1500" height="1500" fill="#000000"></rect><g transform="matrix(0.6666666666666666,0,0,0.6666666666666666,250.88393442622947,244.40971659919023)"><svg viewBox="0 0 244 247" data-background-color="#ffffff" preserveAspectRatio="xMidYMid meet" height="1518" width="1500" xmlns="http://www.w3.org/2000/svg" xmlns:xlink="http://www.w3.org/1999/xlink"><g id="tight-bounds" transform="matrix(1,0,0,1,-0.21567999999999188,-0.09999999999999432)"><svg viewBox="0 0 244.43135999999998 247.2" height="247.2" width="244.43135999999998"><g><svg></svg></g><g><svg viewBox="0 0 244.43135999999998 247.2" height="247.2" width="244.43135999999998"><g transform="matrix(1,0,0,1,0,57.10297829596412)"><svg viewBox="0 0 244.43135999999998 132.99404340807175" height="132.99404340807175" width="244.43135999999998"><g><svg viewBox="0 0 244.43135999999998 132.99404340807175" height="132.99404340807175" width="244.43135999999998"><g><svg viewBox="0 0 244.43135999999998 132.99404340807175" height="132.99404340807175" width="244.43135999999998"><g><svg viewBox="0 0 244.43135999999998 132.99404340807175" height="132.99404340807175" width="244.43135999999998"><g id="textblocktransform"><svg viewBox="0 0 244.43135999999998 132.99404340807175" height="132.99404340807175" width="244.43135999999998" id="textblock"><g><svg viewBox="0 0 244.43135999999998 132.99404340807175" height="132.99404340807175" width="244.43135999999998"><g transform="matrix(1,0,0,1,0,0)"><svg width="244.43135999999998" viewBox="2.25 -35.7 66.9 36.400000000000006" height="132.99404340807175" data-palette-color="#096a2e"><path d="M35.7-14.6L36.1-14.6 36.55-6Q35.45-4.15 33.6-2.65 31.75-1.15 29-0.23 26.25 0.7 22.5 0.7L22.5 0.7Q16.4 0.65 11.83-1.53 7.25-3.7 4.75-7.75 2.25-11.8 2.25-17.55L2.25-17.55Q2.25-23.15 4.7-27.23 7.15-31.3 11.73-33.5 16.3-35.7 22.65-35.7L22.65-35.7Q26.65-35.7 29.83-34.9 33-34.1 35.1-32.95L35.1-32.95 35.2-24.4 34.75-24.4Q33.4-29.35 30.35-31.48 27.3-33.6 23.2-33.6L23.2-33.6Q19.2-33.6 16.35-31.65 13.5-29.7 11.95-26.15 10.4-22.6 10.4-17.65L10.4-17.65Q10.4-12.7 11.88-9.1 13.35-5.5 16.07-3.5 18.8-1.5 22.5-1.4L22.5-1.4Q26.35-1.4 29-2.65 31.65-3.9 33.27-6.8 34.9-9.7 35.7-14.6L35.7-14.6ZM44.8-35L52.3-35 52.3 0 44.8 0 44.8-35ZM52.15-2.15L65.5-2.15 66.7 0 52.15 0 52.15-2.15ZM68.65-10.2L69.15-10.2 66.85 0 57.05 0 58.85-2.15Q61.35-2.15 63.25-3.13 65.15-4.1 66.5-5.93 67.85-7.75 68.65-10.2L68.65-10.2ZM44.8-3.65L44.95-3.65 44.95 0 40.95 0 40.95-0.5Q40.95-0.5 41.27-0.5 41.6-0.5 41.6-0.5L41.6-0.5Q42.9-0.5 43.82-1.43 44.75-2.35 44.8-3.65L44.8-3.65ZM44.95-35L44.95-31.35 44.8-31.35Q44.75-32.65 43.82-33.58 42.9-34.5 41.6-34.5L41.6-34.5Q41.6-34.5 41.27-34.5 40.95-34.5 40.95-34.5L40.95-34.5 40.95-35 44.95-35ZM52.3-31.35L52.15-31.35 52.15-35 56.15-35 56.15-34.5Q56.1-34.5 55.8-34.5 55.5-34.5 55.5-34.5L55.5-34.5Q54.2-34.5 53.27-33.58 52.35-32.65 52.3-31.35L52.3-31.35Z" opacity="1" transform="matrix(1,0,0,1,0,0)" fill="#ffffff" class="wordmark-text-0" data-fill-palette-color="primary" id="text-0"></path></svg></g></svg></g></svg></g></svg></g><g></g></svg></g></svg></g></svg></g><path d="M0 51.103L0 1 244.431 1 244.431 51.103 232.438 51.103 232.438 12.994 11.994 12.994 11.994 51.103 0 51.103M0 196.097L0 246.2 244.431 246.2 244.431 196.097 232.438 196.097 232.438 234.206 11.994 234.206 11.994 196.097 0 196.097" fill="#ffffff" stroke="transparent" data-fill-palette-color="tertiary"></path></svg></g><defs></defs></svg><rect width="244.43135999999998" height="247.2" fill="none" stroke="none" visibility="hidden"></rect></g></svg></g></svg>